<?xml version="1.0" standalone="no"?>
<!DOCTYPE svg PUBLIC "-//W3C//DTD SVG 1.1//EN" "http://www.w3.org/Graphics/SVG/1.1/DTD/svg11.dtd" >
<svg xmlns="http://www.w3.org/2000/svg">
<metadata>
This is a custom SVG webfont generated by Font Squirrel.
Copyright   : 2009 copyright c by Jean Francois Porchez Typofonderie All rights reserved Distributed exclusively by AWFP under licence with Typofonderie Any distribution to a third party is prohibited Names are trademarks in some cases
Designer    : Jean Francois Porchez Typofonderie
Foundry     : Jean Francois Porchez Typofonderie
Foundry URL : httpwwwtypofonderiecom
</metadata>
<defs>
<font id="webfontD4m2BlOC" horiz-adv-x="1024" >
<font-face units-per-em="2048" ascent="1559" descent="-489" />
<missing-glyph horiz-adv-x="512" />
<glyph unicode=" "  horiz-adv-x="512" />
<glyph unicode="&#x09;" horiz-adv-x="512" />
<glyph unicode="&#xa0;" horiz-adv-x="512" />
<glyph unicode="!" horiz-adv-x="512" d="M154 115q0 49 28.5 79.5t73.5 30.5q47 0 75.5 -30.5t28.5 -79.5q0 -51 -28.5 -83t-73.5 -32q-47 0 -75.5 32t-28.5 83zM158 1284q0 43 25.5 69.5t70.5 26.5t71.5 -26.5t26.5 -69.5q0 -113 -47 -366.5t-47 -409.5v-125h-8v125q0 156 -46 409.5t-46 366.5z" />
<glyph unicode="&#x22;" horiz-adv-x="839" d="M193 1298q-6 35 12 58.5t49 23.5q33 0 50.5 -22.5t10.5 -59.5l-55 -352h-8zM522 1298q-6 35 12.5 58.5t49.5 23.5q33 0 50 -22.5t11 -59.5l-55 -352h-8z" />
<glyph unicode="#" horiz-adv-x="1105" d="M129 264v96h229l60 293h-289v99h309l56 262h10l-55 -262h319l55 262h11l-56 -262h197v-99h-217l-62 -293h279v-96h-297l-55 -264h-11l56 264h-320l-55 -264h-10l55 264h-209zM367 360h321l60 293h-320z" />
<glyph unicode="$" horiz-adv-x="1040" d="M123 168q0 45 29.5 73.5t78.5 28.5q43 0 73 -29.5t30 -72.5q0 -37 -22.5 -74t-22.5 -47q0 -25 63.5 -44t141.5 -21v442q-82 23 -131.5 42t-108.5 57t-87 96.5t-28 138.5q0 127 101.5 201.5t253.5 78.5v207h8v-207q135 0 249.5 -60t114.5 -136q0 -45 -29.5 -74t-78.5 -29 q-43 0 -73 30t-30 73q0 35 22.5 71.5t22.5 49.5q0 25 -58 46t-140 21v-424q193 -55 254 -92q135 -80 135 -240q0 -137 -114.5 -218t-274.5 -83v-204h-8v204q-152 2 -261.5 59.5t-109.5 135.5zM229 846q0 -100 68 -150.5t197 -87.5v422q-127 -2 -196 -54t-69 -130zM502 -18 q115 2 207 52t92 163q0 41 -18.5 74.5t-41 54t-70.5 41t-77 28.5l-92 27v-440z" />
<glyph unicode="%" horiz-adv-x="1671" d="M82 1034.5q0 153.5 99.5 263t263 109.5t263 -109.5t99.5 -263t-99.5 -264.5t-263 -111t-263 111t-99.5 264.5zM238 1032q0 -365 206.5 -364.5t206.5 364.5q0 367 -206.5 367t-206.5 -367zM395 0l858 1380h21l-858 -1380h-21zM862 346.5q0 153.5 99.5 264t263.5 110.5 t263 -110.5t99 -264t-99 -263.5t-263 -110t-263.5 110t-99.5 263.5zM1018 348q0 -367 207 -366.5t207 366.5q0 365 -207 365t-207 -365z" />
<glyph unicode="&#x26;" horiz-adv-x="1650" d="M164 383q0 315 432 379q-170 27 -269.5 103.5t-99.5 201.5q0 168 129 254t336 86q160 0 249 -62.5t89 -146.5q0 -45 -29.5 -73.5t-78.5 -28.5q-43 0 -73 29.5t-30 72.5q0 35 22.5 72t22.5 49q0 31 -40 55.5t-132 24.5q-131 0 -195.5 -93.5t-64.5 -240.5q0 -68 2 -101.5 t14.5 -79.5t37 -66.5t71.5 -36t119 -15.5h125v-8h-125q-172 0 -239.5 -93.5t-67.5 -281.5q0 -180 90 -290.5t282 -110.5q139 0 267.5 57t214.5 172t86 260q0 90 -35 182q-23 -8 -65 -21l-63 -21l-57 -19q-36 -12 -55 -21l-45 -20q-27 -12 -40 -22.5t-26.5 -23.5t-19.5 -27.5 t-6 -31.5q0 -63 51 -63q20 0 54 26.5t59 26.5q29 0 45 -20.5t16 -50.5q0 -27 -20.5 -45.5t-50.5 -18.5q-63 0 -115.5 53.5t-52.5 128.5q0 57 25.5 101.5t79.5 78t106.5 55t140.5 50.5q180 57 247.5 96t67.5 101q0 33 -18.5 58.5t-42.5 25.5q-23 0 -47.5 -27t-50.5 -27 q-31 0 -53.5 20.5t-22.5 51.5q0 33 19.5 54.5t49.5 21.5q68 0 123.5 -64.5t55.5 -148.5q0 -100 -74 -165t-207 -110q39 -96 39 -188q0 -238 -164 -366t-416 -128q-270 0 -423.5 100.5t-153.5 309.5z" />
<glyph unicode="'" horiz-adv-x="512" d="M193 1298q-6 35 12 58.5t49 23.5q33 0 50.5 -22.5t10.5 -59.5l-55 -352h-8z" />
<glyph unicode="(" horiz-adv-x="628" d="M94 477q0 182 45 338t121 263.5t158 181t172 120.5h8q-158 -106 -256 -330.5t-98 -572.5t98 -574.5t256 -328.5h-8q-88 47 -169 120t-158 181.5t-123 265t-46 336.5z" />
<glyph unicode=")" horiz-adv-x="628" d="M31 -426q158 106 256 330.5t98 572.5t-98.5 574.5t-255.5 328.5h8q88 -47 169 -119.5t157.5 -181t123 -265.5t46.5 -337q0 -182 -45.5 -337.5t-121 -263t-157.5 -181.5t-172 -121h-8z" />
<glyph unicode="*" horiz-adv-x="878" d="M90 1077l43 135l299 -157l-65 329h143l-66 -329l299 157l43 -135l-340 -39l265 -250l-119 -81l-154 317l-153 -317l-119 81l264 250z" />
<glyph unicode="+" d="M41 461v112h414v416h112v-416h416v-112h-416v-414h-112v414h-414z" />
<glyph unicode="," horiz-adv-x="512" d="M115 -195q113 0 173 50.5t60 138.5q0 59 -49 59q-14 0 -31.5 -5t-27.5 -5q-45 0 -70 23.5t-25 60.5q0 45 25 71.5t70 26.5q53 0 93 -49t40 -151q0 -96 -60.5 -162t-197.5 -66v8z" />
<glyph unicode="-" horiz-adv-x="512" d="M41 416v121h430v-121h-430z" />
<glyph unicode="." horiz-adv-x="512" d="M160 115q0 49 28.5 79.5t73.5 30.5q47 0 76 -30.5t29 -79.5q0 -51 -29 -83t-74 -32q-47 0 -75.5 32t-28.5 83z" />
<glyph unicode="/" horiz-adv-x="688" d="M57 0l551 1380h21l-551 -1380h-21z" />
<glyph unicode="0" horiz-adv-x="1183" d="M82 508q0 219 138 375.5t371.5 156.5t372 -156.5t138.5 -375.5t-138.5 -377t-372 -158t-371.5 158t-138 377zM287 506q0 -524 305 -524t305 524q0 526 -305 526t-305 -526z" />
<glyph unicode="1" horiz-adv-x="587" d="M51 0v6l62 2q43 2 58 14.5t24.5 67.5t9.5 191v479q0 135 -9.5 190.5t-24.5 67.5t-58 14l-62 2v6h486v-6l-62 -2q-43 -2 -58.5 -14t-24.5 -67.5t-9 -190.5v-479q0 -135 9 -190.5t24.5 -68t58.5 -14.5l62 -2v-6h-486z" />
<glyph unicode="2" horiz-adv-x="1136" d="M74 0v18l325 211q100 66 163 127.5t88.5 128t31.5 110.5t6 120q0 317 -227 317q-84 0 -125 -25.5t-41 -56.5q0 -12 22.5 -49t22.5 -72q0 -43 -29.5 -72.5t-72.5 -29.5q-49 0 -79 28.5t-30 73.5q0 88 95 149.5t237 61.5q182 0 307 -85t125 -236q0 -39 -8 -75t-30 -72 l-39 -62q-17 -27 -60 -61l-69 -57q-26 -22 -86 -59l-90 -57l-105 -62l-109 -64h408q135 0 190 9t67.5 24.5t14.5 58.5l2 41h6v-283h-911z" />
<glyph unicode="3" horiz-adv-x="1134" d="M80 -184q0 45 29.5 73.5t78.5 28.5q43 0 73 -29.5t30 -72.5q0 -37 -22.5 -74t-22.5 -47q0 -18 14 -34.5t61.5 -31t120.5 -14.5q319 0 320 391q0 186 -67.5 275.5t-239.5 89.5h-187v8h187q70 0 118 16.5t72.5 39t36.5 69.5t14 80.5t2 103.5q0 150 -64.5 247t-195.5 97 q-92 0 -132 -24.5t-40 -55.5q0 -10 22.5 -47t22.5 -74q0 -43 -29.5 -72.5t-72.5 -29.5q-49 0 -79 28.5t-30 73.5q0 84 89.5 146.5t248.5 62.5q205 0 335 -91t130 -259q0 -125 -100.5 -207t-267.5 -108q211 -31 321.5 -119t110.5 -250q0 -195 -148.5 -297t-376.5 -102 q-176 0 -269 62.5t-93 146.5z" />
<glyph unicode="4" horiz-adv-x="1185" d="M88 90v8l731 942h29v-942h227v-8h-227v-457h-174v457h-586zM98 98h576v740z" />
<glyph unicode="5" horiz-adv-x="1077" d="M98 -184q0 45 30 73.5t79 28.5q43 0 72.5 -29.5t29.5 -72.5q0 -37 -22.5 -74t-22.5 -47q0 -18 14.5 -34.5t61.5 -31t121 -14.5q311 0 311 405q0 96 -25.5 185.5t-95 161t-174.5 71.5q-59 0 -110.5 -13t-82 -27.5t-94.5 -49.5l-8 4v662h361q190 0 244.5 19.5t62.5 78.5 l6 41h6l-37 -285q-137 14 -338 15h-297v-529q66 37 96.5 52.5t91 32t128.5 16.5q207 0 339 -118t132 -317q0 -188 -150.5 -300.5t-365.5 -112.5q-176 0 -269.5 62.5t-93.5 146.5z" />
<glyph unicode="6" horiz-adv-x="1230" d="M133 618q0 115 15.5 220.5t56.5 211t101.5 183.5t159.5 126t224 48q158 0 253 -64.5t95 -140.5q0 -41 -26.5 -66.5t-71.5 -25.5q-37 0 -64.5 26.5t-27.5 65.5q0 33 20.5 67t20.5 44q0 16 -20.5 34.5t-67.5 35t-111 16.5q-102 0 -173 -50.5t-107.5 -149.5t-53 -212 t-20.5 -270q133 147 327.5 147t314.5 -116.5t120 -305.5q0 -207 -134.5 -338t-340.5 -131q-129 0 -225.5 52.5t-153 143.5t-84 203.5t-27.5 245.5zM336 569q0 -113 13 -210t44 -186t91.5 -141t142.5 -52q266 0 266 444q0 127 -18.5 214t-74 146.5t-149.5 59.5 q-184 0 -315 -142v-133z" />
<glyph unicode="7" horiz-adv-x="1030" d="M86 737v277h856v-29l-248 -479q-90 -176 -118.5 -347t-28.5 -427q0 -41 -29 -69t-74 -28q-39 0 -66.5 28t-27.5 69q0 109 36 220t78 185l114 191q72 117 104 180l195 364l-510 -2q-135 0 -190.5 -9t-68 -24.5t-14.5 -58.5l-2 -41h-6z" />
<glyph unicode="8" horiz-adv-x="1224" d="M123 369q0 139 101.5 238.5t303.5 125.5q-170 16 -265 109.5t-95 208.5q0 164 129 260t311.5 96t311.5 -96.5t129 -259.5q0 -117 -84 -202t-267 -116q203 -29 303.5 -127t100.5 -237q0 -180 -142.5 -288t-351.5 -108q-207 0 -346 108t-139 288zM322 346q0 -162 73.5 -263 t210.5 -101q139 0 215 101t76 263q0 383 -289 383q-150 0 -218 -105.5t-68 -277.5zM369 1075q0 -188 51 -263t190.5 -75t191.5 76t52 262q0 162 -56.5 243t-187.5 81t-186 -80t-55 -244z" />
<glyph unicode="9" horiz-adv-x="1230" d="M133 571q0 207 134 338t341 131q129 0 225.5 -52t152.5 -143t84 -204t28 -246q0 -115 -15.5 -220t-56.5 -210.5t-101.5 -183.5t-159.5 -126t-224 -48q-158 0 -253 64.5t-95 140.5q0 41 26.5 66.5t71.5 25.5q37 0 64.5 -27t27.5 -65q0 -33 -20.5 -67t-20.5 -44 q0 -16 20.5 -34.5t67.5 -35t111 -16.5q102 0 171.5 50t107.5 148.5t53.5 212t19.5 269.5q-131 -145 -325.5 -145t-314.5 116.5t-120 304.5zM338 590q0 -127 18.5 -214t73.5 -146.5t150 -59.5q182 0 313 139q2 45 2 135q0 113 -13.5 210.5t-44 186.5t-91 141t-142.5 52 q-266 0 -266 -444z" />
<glyph unicode=":" horiz-adv-x="512" d="M156 115q0 49 28.5 79.5t73.5 30.5q47 0 75.5 -30.5t28.5 -79.5q0 -51 -28.5 -83t-73.5 -32q-47 0 -75.5 32t-28.5 83zM156 809q0 49 28.5 80t73.5 31q47 0 75.5 -31t28.5 -80q0 -51 -28.5 -83t-73.5 -32q-47 0 -75.5 32t-28.5 83z" />
<glyph unicode=";" horiz-adv-x="512" d="M115 -193q113 0 173 50.5t60 138.5q0 59 -49 59q-14 0 -31.5 -5t-27.5 -5q-45 0 -70 23.5t-25 60.5q0 45 25 71.5t70 26.5q53 0 93 -49t40 -151q0 -96 -60.5 -162t-197.5 -66v8zM145 807q0 49 29 80t74 31q47 0 75.5 -31t28.5 -80q0 -51 -28.5 -83t-73.5 -32 q-47 0 -76 32t-29 83z" />
<glyph unicode="&#x3c;" d="M20 -205v533h697v-287h-185v102h-327v-163h799v-185h-984zM20 389v553h185v-184h799v-185h-799v-184h-185zM20 1004v430h185v-246h307v205h184v-205h308v-184h-984z" />
<glyph unicode="=" d="M41 256v113h942v-113h-942zM41 666v112h942v-112h-942z" />
<glyph unicode="&#x3e;" d="M20 -205v533h697v-287h-185v102h-327v-163h799v-185h-984zM20 389v553h185v-184h799v-185h-799v-184h-185zM20 1004v430h185v-246h307v205h184v-205h308v-184h-984z" />
<glyph unicode="?" horiz-adv-x="899" d="M41 1196q0 88 96 149.5t240 61.5q164 0 289 -88t125 -256q0 -135 -97.5 -226.5t-304.5 -189.5q-66 -31 -92.5 -60.5t-26.5 -72.5q0 -59 48.5 -89t115.5 -30h23v-8h-23q-68 0 -121 31t-53 96q0 45 28.5 77t98.5 64q63 31 105.5 76t61.5 101.5t25.5 106.5t6.5 118 q0 342 -230 342q-72 0 -110.5 -26.5t-38.5 -55.5q0 -10 22.5 -47t22.5 -74q0 -43 -29.5 -72.5t-72.5 -29.5q-49 0 -79 28.5t-30 73.5zM264 115q0 49 29 79.5t74 30.5q47 0 75.5 -30.5t28.5 -79.5q0 -51 -28.5 -83t-73.5 -32q-47 0 -76 32t-29 83z" />
<glyph unicode="@" horiz-adv-x="1605" d="M127 485q0 205 77 374t238.5 276.5t382.5 107.5q311 0 494.5 -195.5t183.5 -512.5q0 -193 -81 -321t-195 -128q-170 0 -215 133q-90 -147 -254 -147q-139 0 -225.5 63.5t-86.5 173.5q0 223 342 223q121 0 220 -45v252q0 199 -203 199q-139 0 -139 -51q0 -10 20.5 -44 t20.5 -67q0 -39 -28 -65.5t-67 -26.5q-43 0 -69.5 25.5t-26.5 66.5q0 74 76 122t211 48q147 0 252.5 -75.5t105.5 -215.5v-309q0 -137 16.5 -193.5t69.5 -56.5q82 0 150.5 110.5t68.5 325.5q0 174 -56 312.5t-149.5 221.5t-205 126t-230.5 43q-272 0 -445 -193.5 t-173 -558.5q0 -338 167 -543.5t480 -205.5q293 0 487 182l7 -8q-193 -184 -502 -184q-342 0 -530.5 209.5t-188.5 551.5zM618 299q0 -203 189 -203q59 0 114.5 38t86.5 97v246q-100 45 -195 45q-195 0 -195 -223z" />
<glyph unicode="A" horiz-adv-x="1382" d="M10 0v6l23 2q47 4 76.5 29.5t79 124t130.5 309.5l357 930h22l432 -1057q90 -221 126 -274.5t100 -61.5l16 -2v-6h-489v6l53 2q84 2 86 62q0 51 -82 264l-92 239h-481l-39 -102q-59 -154 -60 -299q0 -78 23.5 -119t91.5 -45l43 -2v-6h-416zM371 582h473l-238 616z" />
<glyph unicode="B" horiz-adv-x="1396" d="M63 0v6l43 2q55 2 77 21.5t32 82t10 205.5v746q0 143 -10 205.5t-31.5 82t-77.5 21.5l-43 2v6h621q211 0 342 -83t131 -246q0 -143 -124 -226.5t-304 -115.5q88 -10 166 -31t160 -60.5t130 -111.5t48 -166q0 -174 -149.5 -257t-405.5 -83h-615zM412 317q0 -211 14 -260 t82 -49h170q348 0 348 346q0 168 -90 259.5t-268 91.5h-256v-388zM412 713h254q127 0 205.5 84t78.5 254q0 160 -76.5 240.5t-189.5 80.5h-176q-68 0 -82 -49t-14 -260v-350z" />
<glyph unicode="C" horiz-adv-x="1396" d="M113 688q0 190 69.5 350t219 264.5t354.5 104.5q135 0 239 -70q41 -29 66 -28q45 0 127 98h4v-397h-6l-23 69q-45 139 -148.5 229.5t-254.5 90.5q-119 0 -207 -59.5t-136 -163t-70.5 -224.5t-22.5 -262t22.5 -262t70.5 -224.5t136 -162.5t207 -59q94 0 174 38.5t132 101 t86 122t52 118.5l23 70h6v-459h-4q-88 113 -148 113q-27 0 -73 -33q-119 -80 -252 -80q-205 0 -354.5 104.5t-219 263.5t-69.5 347z" />
<glyph unicode="D" horiz-adv-x="1519" d="M25 0v6l43 2q55 2 76.5 21.5t31.5 82t10 205.5v746q0 143 -10 205.5t-31.5 82t-76.5 21.5l-43 2v6h671q328 0 510.5 -195.5t182.5 -492.5q0 -295 -186.5 -493.5t-504.5 -198.5h-673zM373 317q0 -211 14 -260t82 -49h227q166 0 277.5 100.5t158 249t46.5 332.5 q0 186 -52.5 338t-164 248t-265.5 96h-227q-68 0 -82 -49t-14 -260v-746z" />
<glyph unicode="E" horiz-adv-x="1282" d="M63 0v6l43 2q55 2 77 21.5t32 82t10 205.5v746q0 143 -10 205.5t-31.5 82t-77.5 21.5l-43 2v6h1004v-370h-6l-23 69q-31 96 -73.5 156.5t-99 89.5t-111 38t-133.5 9h-113q-68 0 -82 -49t-14 -260v-350h116q45 0 77 5t69 22.5t64.5 56.5t43.5 100l13 45h6v-467h-6l-13 45 q-16 61 -43.5 100t-64.5 56.5t-69 23t-77 5.5h-116v-388q0 -211 14 -260t82 -49h154q113 0 178 21.5t127.5 100.5t111.5 232l23 70h6v-432h-1045z" />
<glyph unicode="F" horiz-adv-x="1251" d="M63 0v6l43 2q55 2 77 21.5t32 82t10 205.5v746q0 143 -10 205.5t-31.5 82t-77.5 21.5l-43 2v6h1045v-411h-6l-23 69q-39 117 -81 186.5t-99 100.5t-105.5 39t-131.5 8h-154q-68 0 -82 -49t-14 -260v-391h157q45 0 77 5t69 22.5t64.5 56.5t43.5 100l13 45h6v-508h-6 l-13 45q-27 98 -70.5 150.5t-82.5 64t-101 11.5h-157v-347q0 -113 4 -167t26.5 -88.5t52 -42t97.5 -11.5l43 -2v-6h-572z" />
<glyph unicode="G" horiz-adv-x="1421" d="M92 688q0 190 69.5 350t219 264.5t354.5 104.5q135 0 240 -70q41 -29 65 -28q45 0 127 98h4v-397h-6l-22 69q-45 139 -148.5 229.5t-255.5 90.5q-119 0 -207 -59.5t-136 -163t-70.5 -224.5t-22.5 -262t22.5 -262t70.5 -224.5t136.5 -162.5t206.5 -59q145 0 256 79 q35 25 43.5 55.5t8.5 114.5v109q0 113 -4.5 167t-29 89t-58 42t-109.5 11l-43 2v6h592v-6l-43 -2q-55 -2 -77 -21.5t-32 -82t-10 -205.5v-367h-4q-88 113 -148 113q-27 0 -73 -33q-119 -80 -273 -80q-205 0 -354.5 104.5t-219 263.5t-69.5 347z" />
<glyph unicode="H" horiz-adv-x="1595" d="M63 0v6l43 2q55 2 77 21.5t32 82t10 205.5v746q0 143 -10 205.5t-31.5 82t-77.5 21.5l-43 2v6h510v-6l-43 -2q-55 -2 -76.5 -21.5t-31.5 -82t-10 -205.5v-350h772v350q0 143 -10.5 205.5t-32 82t-76.5 21.5l-43 2v6h510v-6l-43 -2q-55 -2 -76.5 -21.5t-32 -82 t-10.5 -205.5v-746q0 -143 10.5 -205.5t32 -82t76.5 -21.5l43 -2v-6h-510v6l43 2q55 2 76.5 21.5t32 82t10.5 205.5v388h-772v-388q0 -143 10 -205.5t31.5 -82t76.5 -21.5l43 -2v-6h-510z" />
<glyph unicode="I" horiz-adv-x="636" d="M63 0v6l43 2q55 2 77 21.5t32 82t10 205.5v746q0 143 -10 205.5t-31.5 82t-77.5 21.5l-43 2v6h510v-6l-43 -2q-55 -2 -76.5 -21.5t-31.5 -82t-10 -205.5v-746q0 -143 10 -205.5t31.5 -82t76.5 -21.5l43 -2v-6h-510z" />
<glyph unicode="J" horiz-adv-x="1048" d="M49 186q0 47 31 78t82 31q45 0 76.5 -31t31.5 -78q0 -39 -23.5 -81t-23.5 -54q0 -20 6.5 -33.5t39 -24.5t93.5 -11q74 0 127.5 27.5t81 67.5t44 107.5t19.5 122.5t3 137v619q0 143 -10.5 205.5t-32 82t-76.5 21.5l-43 2v6h510v-6l-43 -2q-55 -2 -76.5 -21.5t-32 -82 t-10.5 -205.5v-602q0 -211 -113.5 -349.5t-347.5 -138.5q-154 0 -233.5 64.5t-79.5 148.5z" />
<glyph unicode="K" horiz-adv-x="1400" d="M63 0v6l43 2q55 2 77 21.5t32 82t10 205.5v746q0 143 -10 205.5t-31.5 82t-77.5 21.5l-43 2v6h510v-6l-43 -2q-55 -2 -76.5 -21.5t-31.5 -82t-10 -205.5v-371h41q61 0 113 41t194 191l65 69q158 170 158 289q2 84 -86 90l-43 2v6h539v-6l-43 -2q-84 -4 -195 -79.5 t-321 -299.5l-68 -71q-4 -4 -46 -50l-61 -63l-53 -51q-35 -33 -60.5 -48.5t-45.5 -19.5q342 0 514 -280l108 -183q68 -111 115 -164t98 -55l37 -2v-6h-340q-41 86 -86 170l-65 124l-74 138q-94 162 -147.5 207t-157.5 45h-90v-367q0 -143 10 -205.5t31.5 -82t76.5 -21.5 l43 -2v-6h-510z" />
<glyph unicode="L" horiz-adv-x="1241" d="M63 0v6l43 2q55 2 77 21.5t32 82t10 205.5v746q0 143 -10 205.5t-31.5 82t-77.5 21.5l-43 2v6h510v-6l-43 -2q-55 -2 -76.5 -21.5t-31.5 -82t-10 -205.5v-746q0 -211 14 -260t82 -49h164q111 0 174 25.5t123.5 117t120.5 273.5l22 70h6v-494h-1055z" />
<glyph unicode="M" horiz-adv-x="1734" d="M63 0v6l23 2q84 8 121 126t37 358v571q0 137 -16.5 204.5t-43 85t-84.5 19.5l-37 2v6h347l499 -796l441 796h321v-6l-43 -2q-55 -2 -76.5 -21.5t-32 -82t-10.5 -205.5v-746q0 -143 10.5 -205.5t32 -82t76.5 -21.5l43 -2v-6h-510v6l43 2q55 2 77 21.5t32 82t10 205.5v1002 l-498 -909h-26l-547 858v-776q0 -68 12 -146t36 -154.5t67 -129t98 -54.5l43 -2v-6h-445z" />
<glyph unicode="N" horiz-adv-x="1597" d="M63 0v6l23 2q84 8 121 126t37 358v571q0 137 -16.5 204.5t-43 85t-84.5 19.5l-37 2v6h338l945 -1144v653q0 68 -12.5 145.5t-36 154.5t-66.5 129t-98 54l-43 2v6h444v-6l-23 -2q-84 -8 -120.5 -126t-36.5 -357v-907h-29l-1073 1275v-765q0 -68 12 -146t36 -154.5t67 -129 t98 -54.5l43 -2v-6h-445z" />
<glyph unicode="O" horiz-adv-x="1536" d="M92 692q0 297 182.5 506t493.5 209t493.5 -209t182.5 -506t-182.5 -508t-493.5 -211t-493.5 211t-182.5 508zM303 690q0 -145 23.5 -267t76 -224.5t145.5 -159.5t220 -57t220 57t145.5 158.5t76 223.5t23.5 269q0 145 -23.5 267t-76 224.5t-145.5 160t-220 57.5 t-220 -57.5t-145.5 -159t-76 -223.5t-23.5 -269z" />
<glyph unicode="P" horiz-adv-x="1312" d="M63 0v6l43 2q55 2 77 21.5t32 82t10 205.5v746q0 143 -10 205.5t-31.5 82t-77.5 21.5l-43 2v6h664q217 0 350 -115.5t133 -301.5q0 -170 -122.5 -274.5t-352.5 -104.5h-323v-267q0 -113 4 -167t26.5 -88.5t52 -42t97.5 -11.5l43 -2v-6h-572zM412 592h323q248 0 248 369 q0 100 -22.5 189t-83 155.5t-150.5 66.5h-219q-68 0 -82 -49t-14 -260v-471z" />
<glyph unicode="Q" horiz-adv-x="1536" d="M92 692q0 297 182.5 506t493.5 209t493.5 -209t182.5 -506q0 -225 -108.5 -408.5t-305.5 -260.5q55 -72 93 -113t99.5 -77t125.5 -36q156 0 155 187h10q0 -150 -65.5 -244t-173.5 -94q-70 0 -126 26.5t-103.5 85t-74 102.5t-67.5 126q-63 -12 -135 -13q-311 0 -493.5 211 t-182.5 508zM303 690q0 -428 182 -602q10 205 191 205q51 0 97 -18.5t90 -58.5t71 -71.5t72 -91.5q227 158 227 637q0 145 -23.5 267t-76 224.5t-145.5 160t-220 57.5t-220 -57.5t-145.5 -159t-76 -223.5t-23.5 -269zM492 82q111 -100 276 -100q66 0 127 16l-43 83 q-14 28 -42 71t-49.5 63.5t-53 36.5t-66.5 16q-141 0 -149 -186z" />
<glyph unicode="R" horiz-adv-x="1409" d="M63 0v6l43 2q55 2 77 21.5t32 82t10 205.5v746q0 143 -10 205.5t-31.5 82t-77.5 21.5l-43 2v6h676q195 0 323 -91t128 -257q0 -109 -68.5 -189.5t-179.5 -121.5q-108 -38 -267 -38q-23 0 -46 1q170 -43 263 -104.5t163 -169.5l108 -183q68 -111 115 -164t98 -55l37 -2v-6 h-340q-41 86 -86 170l-65 124l-74 138q-94 164 -147.5 208t-157.5 44h-131v-367q0 -143 10 -205.5t31.5 -82t76.5 -21.5l43 -2v-6h-510zM412 692h325q139 0 191.5 89t52.5 247q0 166 -63.5 255t-178.5 89h-231q-68 0 -82 -49t-14 -260v-371z" />
<glyph unicode="S" horiz-adv-x="1345" d="M178 -27v459h6l25 -76q23 -68 56.5 -128t88 -118.5t137 -93t183.5 -34.5q145 0 232 67.5t87 202.5q0 115 -77.5 195.5t-189.5 132.5l-223 104q-112 53 -189.5 143.5t-77.5 216.5q0 160 116.5 261.5t286.5 101.5q127 0 233 -70q41 -29 68 -28q45 0 125 98h4v-397h-6 l-23 71q-45 150 -153.5 234t-241.5 84q-127 0 -196.5 -60.5t-69.5 -164.5q0 -86 42 -154t110.5 -112t149.5 -84l163 -82q82 -42 150.5 -91t110.5 -125.5t42 -175.5q0 -168 -133 -272.5t-338 -104.5q-152 0 -275 80q-45 31 -75 31q-57 0 -144 -111h-4z" />
<glyph unicode="T" horiz-adv-x="1290" d="M61 969v411h1166v-411h-6l-23 69q-37 113 -82 186.5t-91 102.5t-75.5 37t-62.5 8h-53q-68 0 -82.5 -49t-14.5 -260v-746q0 -143 10.5 -205.5t32 -82t76.5 -21.5l43 -2v-6h-510v6l43 2q55 2 76.5 21.5t32 82t10.5 205.5v746q0 211 -14.5 260t-81.5 49h-54q-33 0 -62.5 -8 t-75.5 -37t-91 -102.5t-82 -186.5l-22 -69h-7z" />
<glyph unicode="U" horiz-adv-x="1595" d="M63 1374v6h510v-6l-43 -2q-55 -2 -76.5 -21.5t-31.5 -82t-10 -205.5v-604q0 -209 118.5 -329t343.5 -120q219 0 343 126t124 321v432q0 68 -12 145.5t-35.5 154.5t-66.5 129t-99 54l-43 2v6h447v-6l-23 -2q-160 -14 -159 -483v-432q0 -215 -146.5 -347.5t-402.5 -132.5 q-264 0 -420 129.5t-156 350.5v606q0 143 -10 205.5t-31.5 82t-77.5 21.5z" />
<glyph unicode="V" horiz-adv-x="1382" d="M10 1374v6h490v-6l-54 -2q-47 -2 -67.5 -18.5t-17 -53t22.5 -93t54 -142.5q6 -12 8 -18l336 -848l273 710q59 154 59 299q0 78 -23.5 119t-91.5 45l-43 2v6h416v-6l-22 -2q-47 -4 -77 -29.5t-79 -124t-131 -309.5l-356 -929h-23l-432 1056q-90 221 -126 274.5t-99 61.5z " />
<glyph unicode="W" horiz-adv-x="1925" d="M20 1374v6h480v-6l-43 -2q-47 -2 -69.5 -17.5t-25.5 -58.5v-12q0 -38 11 -83q12 -52 41 -154l227 -789l373 1147h28l392 -1159l184 663q39 141 39 299q0 78 -23.5 119t-91.5 45l-43 2v6h406v-6l-23 -2q-45 -4 -72.5 -24.5t-75.5 -126t-106 -312.5l-262 -934h-27 l-399 1170l-381 -1170h-27l-301 1061q-61 215 -95 271.5t-99 64.5z" />
<glyph unicode="X" horiz-adv-x="1396" d="M20 0v6l23 2q59 4 157.5 109.5t297.5 382.5l114 159l-264 377q-145 207 -198.5 267.5t-110.5 68.5l-16 2v6h485v-6l-43 -2q-70 -6 -70 -54q0 -17 8 -38q23 -57 146 -233l192 -275l80 115q184 260 185 381q0 51 -16.5 76.5t-65.5 27.5l-43 2v6h426v-6l-23 -2 q-61 -4 -162.5 -111.5t-292.5 -379.5l-81 -117l294 -420q143 -205 200.5 -269.5t117.5 -66.5l16 -2v-6h-485v6l43 2q66 3 66 48q0 15 -7 34q-18 51 -151 244l-224 317l-112 -157q-184 -260 -184 -381q0 -51 16 -77t65 -28l43 -2v-6h-426z" />
<glyph unicode="Y" horiz-adv-x="1314" d="M2 1374v6h506v-6l-43 -2q-74 -5 -74 -58q0 -10 2 -22q12 -55 131 -245l219 -357l144 219q137 209 137 322q0 66 -23.5 101.5t-91.5 39.5l-43 2v6h447v-6l-43 -2q-55 -2 -117.5 -82t-257.5 -385l-147 -227v-361q0 -143 10 -205.5t31.5 -82t76.5 -21.5l43 -2v-6h-510v6 l43 2q55 2 77 21.5t32 82t10 205.5v355l-237 364l-52 78l-43 68l-34 53l-31 45q-10 14 -25.5 33.5t-25.5 26.5l-23 17q-12 9 -24.5 12t-26.5 3z" />
<glyph unicode="Z" horiz-adv-x="1269" d="M143 0v27l756 1345h-268q-84 0 -132 -8t-105.5 -39t-99.5 -100.5t-81 -186.5l-23 -69h-6v411h922v-26l-774 -1346h373q164 0 253 66.5t160 287.5l23 70h6v-432h-1004z" />
<glyph unicode="[" horiz-adv-x="628" d="M178 -426v1806h410v-8h-160q-68 0 -82 -49t-14 -260v-1172q0 -211 14 -260t82 -49h160v-8h-410z" />
<glyph unicode="\" horiz-adv-x="688" d="M59 1380h21l551 -1380h-21z" />
<glyph unicode="]" horiz-adv-x="628" d="M41 -418h160q68 0 82 49.5t14 259.5v1172q0 211 -14.5 260t-81.5 49h-160v8h410v-1806h-410v8z" />
<glyph unicode="^" d="M20 -205v533h697v-287h-185v102h-327v-163h799v-185h-984zM20 389v553h185v-184h799v-185h-799v-184h-185zM20 1004v430h185v-246h307v205h184v-205h308v-184h-984z" />
<glyph unicode="_" d="M0 -406h1024v-20h-1024v20z" />
<glyph unicode="`" d="M358 1380h158l150 -383h-9z" />
<glyph unicode="&#x300;" d="M358 1380h158l150 -383h-9z" />
<glyph unicode="&#x2cb;" d="M358 1380h158l150 -383h-9z" />
<glyph unicode="a" horiz-adv-x="1036" d="M88 240q0 246 379 245q129 0 242 -49v281q0 106 -57.5 162.5t-168.5 56.5q-154 0 -153 -57q0 -10 22.5 -47t22.5 -74q0 -43 -30 -73t-73 -30q-49 0 -78.5 29t-29.5 74q0 80 85 133t232 53q164 0 281 -83t117 -238v-342q0 -135 9 -190.5t24.5 -68t58.5 -14.5l41 -2v-6 h-299v141q-98 -164 -281 -164q-154 0 -249 70t-95 193zM279 229q0 -227 208 -227q66 0 126.5 42t95.5 108v274q-104 49 -215 49q-215 0 -215 -246z" />
<glyph unicode="b" horiz-adv-x="1103" d="M49 0v6l41 2q43 2 58.5 14.5t24.5 67.5t9 191v819q0 135 -9 190.5t-24.5 67.5t-58.5 14l-41 2v6h303v-460q88 25 178 24q229 0 365.5 -136t136.5 -339q0 -160 -76.5 -269.5t-188.5 -154.5t-249 -45h-469zM352 8h168q154 0 234 134t80 327q0 467 -304 467q-90 0 -178 -27 v-901z" />
<glyph unicode="c" horiz-adv-x="995" d="M72 457q0 209 122.5 348t358.5 139q154 0 244 -65.5t90 -147.5q0 -47 -31 -77.5t-82 -30.5q-45 0 -76.5 30.5t-31.5 77.5q0 39 23.5 81t23.5 54q0 70 -160 70q-74 0 -128 -27.5t-84 -68.5t-47.5 -106.5t-21.5 -124t-4 -136.5q0 -76 4 -132t22.5 -125t50.5 -113 t90.5 -74.5t137.5 -30.5q264 0 324 246l10 -2q-59 -268 -375 -269q-217 0 -338.5 142.5t-121.5 341.5z" />
<glyph unicode="d" horiz-adv-x="1103" d="M72 469q0 203 136 339t365 136q90 0 179 -24v180q0 135 -9.5 190.5t-25 67.5t-58.5 14l-41 2v6h304v-1099q0 -135 9 -190.5t24.5 -68t58.5 -14.5l41 -2v-6h-473q-217 0 -363.5 116.5t-146.5 352.5zM270 469q0 -193 78 -327t232 -134h172v901q-98 27 -179 27 q-303 0 -303 -467z" />
<glyph unicode="e" horiz-adv-x="1038" d="M72 457q0 240 123.5 363.5t310.5 123.5q211 0 311.5 -113.5t100.5 -308.5h-650v-49q0 -96 10.5 -166.5t39 -147.5t94 -119t166.5 -42q268 0 327 246l10 -2q-59 -268 -378 -269q-217 0 -341 143.5t-124 340.5zM268 530h457q0 86 -7 148.5t-27.5 126t-66.5 97.5t-118 34 q-141 0 -188.5 -99.5t-49.5 -306.5z" />
<glyph unicode="f" horiz-adv-x="681" d="M59 911v9h146v165q0 145 85 233.5t232 88.5q113 0 181.5 -53.5t68.5 -132.5q0 -45 -29.5 -74t-78.5 -29q-43 0 -73 30t-30 73q0 37 22.5 73.5t22.5 46.5q0 57 -86 57.5t-115.5 -47.5t-29.5 -171v-260h235v-9h-235v-630q0 -135 10 -189.5t28.5 -68t73.5 -15.5l62 -2v-6 h-477v6l41 2q43 2 58 14.5t24.5 67.5t9.5 191v630h-146z" />
<glyph unicode="g" horiz-adv-x="1103" d="M72 451q0 236 149.5 352.5t362.5 116.5h471v-7l-41 -2q-43 -2 -58.5 -14t-24.5 -67.5t-9 -190.5v-655q0 -410 -447 -410q-156 0 -255 64.5t-99 144.5q0 47 29.5 76.5t76.5 29.5q43 0 73 -29.5t30 -76.5q0 -35 -22.5 -72t-22.5 -57q0 -27 49 -49.5t141 -22.5 q170 0 223.5 95.5t53.5 306.5v16q-88 -25 -179 -25q-229 0 -365 136.5t-136 339.5zM270 451q0 -467 303 -467q80 0 179 26v901h-170q-154 0 -233 -133.5t-79 -326.5z" />
<glyph unicode="h" horiz-adv-x="1134" d="M49 0v6l41 2q43 2 58.5 14.5t24.5 67.5t9 191v819q0 135 -9 190.5t-24.5 67.5t-58.5 14l-41 2v6h303v-598q98 162 277 162q143 0 245.5 -88t102.5 -240v-335q0 -135 9 -190.5t24.5 -68t58.5 -14.5l41 -2v-6h-436v6l41 2q43 2 58 14.5t24.5 67.5t9.5 191v337 q0 152 -57.5 227t-153.5 75q-158 0 -244 -152v-487q0 -135 9.5 -190.5t24.5 -68t58 -14.5l41 -2v-6h-436z" />
<glyph unicode="i" horiz-adv-x="497" d="M49 0v6l41 2q43 2 58.5 14.5t24.5 67.5t9 191v358q0 135 -9 190.5t-24.5 67.5t-58.5 14l-41 2v7h303v-639q0 -135 9.5 -190.5t24.5 -68t58 -14.5l41 -2v-6h-436zM168 1282q0 47 27.5 75.5t68.5 28.5t69.5 -28.5t28.5 -75.5t-27.5 -75.5t-70.5 -28.5q-41 0 -68.5 28.5 t-27.5 75.5z" />
<glyph unicode="j" horiz-adv-x="497" d="M-152 -252q0 41 27 66.5t72 25.5q37 0 64.5 -26.5t27.5 -65.5q0 -33 -20.5 -66.5t-20.5 -43.5q0 -55 59 -56q70 0 97.5 50.5t27.5 168.5v838q0 135 -9 190.5t-24.5 67.5t-58.5 14l-41 2v7h303v-1024q0 -143 -83 -232.5t-214 -89.5q-92 0 -149.5 50t-57.5 124zM168 1282 q0 47 27.5 75.5t68.5 28.5t69.5 -28.5t28.5 -75.5t-27.5 -75.5t-70.5 -28.5q-41 0 -68.5 28.5t-27.5 75.5z" />
<glyph unicode="k" horiz-adv-x="1046" d="M49 0v6l41 2q43 2 58.5 14.5t24.5 67.5t9 191v819q0 135 -9 190.5t-24.5 67.5t-58.5 14l-41 2v6h303v-899h21q41 0 85 36t124 122l24 27q47 49 72 106q19 44 19 78q0 10 -2 19q-7 40 -44 42l-28 2v7h340v-7l-29 -2q-47 -4 -113.5 -53t-208.5 -199l-24 -26 q-133 -139 -178 -154q61 0 110 -14t88 -47t61.5 -57.5t59.5 -71.5q12 -16 52 -73.5t44 -61.5q39 -53 57.5 -76t44 -45.5t46.5 -24.5l24 -2v-6h-272q-39 82 -57 115q-74 123 -119 190l-25 39q-14 23 -21 33l-18 25q-10 15 -16 22.5l-13 17t-12.5 13.5t-12.5 8t-14 6t-14.5 3 t-17.5 1h-33v-192q0 -135 9.5 -190.5t24.5 -68t58 -14.5l41 -2v-6h-436z" />
<glyph unicode="l" horiz-adv-x="497" d="M31 0v6l41 2q43 2 58 14.5t24.5 67.5t9.5 191v819q0 135 -9.5 190.5t-24.5 67.5t-58 14l-41 2v6h303v-1099q0 -135 9 -190.5t24.5 -68t58.5 -14.5l41 -2v-6h-436z" />
<glyph unicode="m" horiz-adv-x="1777" d="M49 0v6l41 2q43 2 58.5 14.5t24.5 67.5t9 191v358q0 135 -9 190.5t-24.5 67.5t-58.5 14l-41 2v7h299v-142q100 166 285 166q113 0 203 -52t127 -147q98 199 303 199q147 0 250.5 -87t103.5 -241v-335q0 -135 9 -190.5t24.5 -68t58.5 -14.5l41 -2v-6h-436v6l41 2 q43 2 58.5 14.5t24.5 67.5t9 191v337q0 152 -58.5 227t-158.5 75q-178 0 -266 -187q20 -57 20 -117v-335q0 -135 9.5 -190.5t24.5 -68t58 -14.5l41 -2v-6h-436v6l41 2q43 2 58.5 14.5t24.5 67.5t9 191v337q0 152 -58.5 227t-158.5 75q-162 0 -248 -152v-487 q0 -135 9.5 -190.5t24.5 -68t58 -14.5l41 -2v-6h-436z" />
<glyph unicode="n" horiz-adv-x="1161" d="M49 0v6l41 2q43 2 58.5 14.5t24.5 67.5t9 191v358q0 135 -9 190.5t-24.5 67.5t-58.5 14l-41 2v7h299v-142q104 164 291 164q154 0 259.5 -86t105.5 -240v-335q0 -135 9 -190.5t24.5 -68t58.5 -14.5l41 -2v-6h-437v6l41 2q43 2 58.5 14.5t25 67.5t9.5 191v337 q0 152 -61.5 226t-166.5 74q-166 0 -254 -150v-487q0 -135 9.5 -190.5t24.5 -68t58 -14.5l41 -2v-6h-436z" />
<glyph unicode="o" horiz-adv-x="1069" d="M72 461q0 201 126 342t337 141q213 0 338.5 -142.5t125.5 -343t-125.5 -343t-338.5 -142.5q-211 0 -337 143.5t-126 344.5zM270 459q0 -106 11.5 -187.5t40 -150t82 -104t131.5 -35.5q150 0 207 124.5t57 350t-57.5 352.5t-207 127t-207 -125t-57.5 -352z" />
<glyph unicode="p" horiz-adv-x="1103" d="M49 -420l41 2q43 2 58.5 14.5t24.5 67.5t9 191v784q0 135 -9 190.5t-24.5 67.5t-58.5 14l-41 2v7h471q137 0 249 -45.5t187.5 -155t75.5 -268.5q0 -201 -137 -338.5t-365 -137.5q-90 0 -178 25v-145q0 -135 9.5 -190.5t24.5 -68t58 -14.5l41 -2v-6h-436v6zM352 10 q98 -27 178 -26q303 0 304 467q0 193 -79 326.5t-233 133.5h-170v-901z" />
<glyph unicode="q" horiz-adv-x="1103" d="M72 451q0 160 75.5 269t187 154.5t249.5 45.5h471v-7l-41 -2q-43 -2 -58.5 -14t-24.5 -67.5t-9 -190.5v-784q0 -135 9 -190.5t24.5 -68t58.5 -14.5l41 -2v-6h-437v6l41 2q43 2 58.5 14.5t25 67.5t9.5 191v147q-94 -27 -179 -27q-229 0 -365 136.5t-136 339.5zM270 451 q0 -467 303 -467q80 0 179 26v901h-170q-154 0 -233 -133.5t-79 -326.5z" />
<glyph unicode="r" horiz-adv-x="770" d="M49 0v6l41 2q43 2 58.5 14.5t24.5 67.5t9 191v358q0 135 -9 190.5t-24.5 67.5t-58.5 14l-41 2v7h299v-142q84 166 230 166q74 0 126 -44t52 -114q0 -55 -30 -81.5t-73 -26.5q-41 0 -69.5 26.5t-28.5 65.5q0 47 38 82t38 51q0 33 -60 33q-137 0 -219 -168v-487 q0 -135 10.5 -189.5t29 -68t73.5 -15.5l61 -2v-6h-477z" />
<glyph unicode="s" horiz-adv-x="856" d="M82 -27v310h12l15 -47q33 -104 109.5 -179t205.5 -75q98 0 156.5 45t58.5 137q0 70 -53.5 119t-129 79.5t-150.5 66.5t-128 102.5t-53 162.5q0 109 80 179.5t196 70.5q88 0 162 -47q27 -18 43 -18q27 0 82 65h6v-268h-10l-14 47q-31 102 -102.5 157.5t-161.5 55.5 q-86 0 -132.5 -40t-46.5 -111.5t53.5 -122t130 -83t152.5 -69.5t130.5 -106.5t54.5 -170.5q0 -115 -91.5 -187.5t-230.5 -72.5q-98 0 -188 54q-41 23 -52 22q-37 0 -96 -76h-8z" />
<glyph unicode="t" horiz-adv-x="741" d="M59 911v9h146v329h170v-329h235v-9h-235v-628q0 -55 3 -92t13 -87.5t38 -77t71 -26.5q131 0 131 201h8q0 -106 -40 -166t-146 -60q-113 0 -180.5 81t-67.5 227v628h-146z" />
<glyph unicode="u" horiz-adv-x="1120" d="M29 913v7h299v-619q0 -152 56 -226.5t153 -74.5q145 0 231 152v487q0 135 -9 190.5t-24.5 67.5t-58.5 14l-41 2v7h303v-639q0 -135 9 -190.5t24.5 -68t58.5 -14.5l41 -2v-6h-299v141q-100 -166 -268 -166q-141 0 -243.5 88.5t-102.5 239.5v336q0 133 -8.5 189.5 t-23.5 68.5t-56 14z" />
<glyph unicode="v" horiz-adv-x="948" d="M4 913v7h393v-7l-37 -2q-35 -2 -49 -12t-12 -41t12.5 -61.5l36.5 -102.5l213 -565l174 473q27 63 27 138q0 29 -4 59q-14 109 -78 112l-35 2v7h301v-7l-16 -2q-33 -4 -51.5 -20.5t-50 -82t-85.5 -206.5l-231 -629h-68l-274 715q-53 137 -80 177t-72 46z" />
<glyph unicode="w" horiz-adv-x="1568" d="M4 913v7h393v-7l-37 -2q-33 -2 -47 -12t-13 -36.5t11.5 -61.5t32.5 -96q2 -6 4 -11l201 -551l266 797h68l301 -803l155 465q30 77 31 169q0 14 -1 28q-5 109 -66 112l-35 2v7h299v-7l-17 -2q-37 -6 -57 -18t-60 -83t-85 -208l-211 -629h-68l-303 791l-264 -791h-68 l-264 715q-49 135 -76.5 176t-75.5 47z" />
<glyph unicode="x" horiz-adv-x="1007" d="M20 913v7h435v-7l-37 -2q-37 -2 -52.5 -17t-9.5 -45t24.5 -65.5t53.5 -89.5l119 -180l98 150q80 123 80 199q0 46 -33 48l-34 2v7h301v-7l-17 -2q-51 -6 -131 -67.5t-155 -179.5l-103 -158l182 -275q80 -121 129.5 -168t102.5 -55l14 -2v-6h-434v6l37 2q46 2 46 47 q0 32 -24 84q-18 41 -49 86l-125 189l-106 -158q-82 -123 -82 -200q0 -46 35 -48l34 -2v-6h-294v6l10 2q51 10 130 70.5t157 177.5l110 166l-176 266q-84 127 -127 171t-94 52z" />
<glyph unicode="y" horiz-adv-x="948" d="M2 913v7h401v-7l-36 -2q-35 -2 -50.5 -14t-15.5 -39t12.5 -64.5t40.5 -99.5l213 -477l154 385q42 98 42 185q0 11 -1 23q-6 97 -72 101l-35 2v7h291v-7l-16 -2q-45 -6 -85 -64.5t-114 -244.5l-242 -606v-33q0 -215 37 -294t125 -87l23 -2v-6h-377v6l22 2q88 8 125 87 t37 294v33l-311 692q-57 127 -89 173t-63 50z" />
<glyph unicode="z" horiz-adv-x="933" d="M109 0v18l520 893h-195q-117 0 -175 -49t-101 -168l-17 -45h-6v271h678v-19l-526 -893h258q121 0 177 53.5t95 180.5l17 51h6v-293h-731z" />
<glyph unicode="{" d="M20 -205v533h697v-287h-185v102h-327v-163h799v-185h-984zM20 389v553h185v-184h799v-185h-799v-184h-185zM20 1004v430h185v-246h307v205h184v-205h308v-184h-984z" />
<glyph unicode="|" horiz-adv-x="512" d="M246 -393v1966h20v-1966h-20z" />
<glyph unicode="}" d="M20 -205v533h697v-287h-185v102h-327v-163h799v-185h-984zM20 389v553h185v-184h799v-185h-799v-184h-185zM20 1004v430h185v-246h307v205h184v-205h308v-184h-984z" />
<glyph unicode="~" d="M20 -205v533h697v-287h-185v102h-327v-163h799v-185h-984zM20 389v553h185v-184h799v-185h-799v-184h-185zM20 1004v430h185v-246h307v205h184v-205h308v-184h-984z" />
<glyph unicode="&#xa1;" horiz-adv-x="512" d="M152 827q0 51 28.5 83t73.5 32q47 0 75.5 -31.5t28.5 -83.5q0 -49 -28.5 -79.5t-73.5 -30.5q-47 0 -75.5 30.5t-28.5 79.5zM160 -342q0 113 47 367t47 409v125h8v-125q0 -156 46 -409.5t46 -366.5q0 -43 -25.5 -69.5t-70.5 -26.5t-71.5 26.5t-26.5 69.5z" />
<glyph unicode="&#xa2;" horiz-adv-x="1048" d="M78 508q0 219 129 375.5t348 156.5h2v205h10v-205q162 -4 267.5 -82.5t105.5 -160.5q0 -47 -30.5 -78t-82.5 -31q-45 0 -76.5 31t-31.5 78q0 39 23.5 81t23.5 54q0 18 -18.5 38.5t-66.5 40t-114 21.5v-1032h21q129 0 227 84t129 213l10 -2q-31 -135 -136 -227.5 t-251 -94.5v-204h-10v204q-221 2 -350 160t-129 375zM279 508q0 -106 12 -189t41.5 -156t86 -115t138.5 -48v1032h-2q-102 0 -166.5 -79t-87 -189.5t-22.5 -255.5z" />
<glyph unicode="&#xa3;" horiz-adv-x="1062" d="M123 506v8h196q-43 51 -60 74.5t-38.5 73t-21.5 98.5q0 125 96 202.5t268 77.5q119 0 234.5 -65.5t115.5 -140.5q0 -45 -29.5 -74t-78.5 -29q-43 0 -73 30t-30 73q0 35 23 71.5t23 48.5q0 27 -57.5 52.5t-131.5 25.5q-233 0 -233 -194q0 -63 26.5 -117.5t81.5 -121.5 t68 -85h334v-8h-328q31 -51 31 -96q0 -74 -47.5 -130.5t-172.5 -129.5h359q135 0 190.5 9t67.5 24.5t14 58.5l2 41h6v-283h-808v18l174 154q78 68 77 168q0 72 -75 166h-203z" />
<glyph unicode="&#xa4;" d="M20 -205v533h697v-287h-185v102h-327v-163h799v-185h-984zM20 389v553h185v-184h799v-185h-799v-184h-185zM20 1004v430h185v-246h307v205h184v-205h308v-184h-984z" />
<glyph unicode="&#xa5;" horiz-adv-x="1124" d="M51 1008v6h418v-6l-33 -2q-57 -4 -57 -37q2 -37 102 -191l166 -256l105 156q104 152 104 221q0 102 -84 107h-33v8h332v-8h-33q-41 -2 -86 -56.5t-192 -275.5l-113 -168h283v-8h-283v-209h283v-8h-283v-43q0 -109 7.5 -154t23.5 -60.5t57 -17.5h33v-6h-422v6h33 q41 2 57.5 16.5t23.5 61.5t7 154v43h-283v8h283v209h-283v8h279l-172 266q-98 152 -133 192t-80 42z" />
<glyph unicode="&#xa6;" d="M20 -205v533h697v-287h-185v102h-327v-163h799v-185h-984zM20 389v553h185v-184h799v-185h-799v-184h-185zM20 1004v430h185v-246h307v205h184v-205h308v-184h-984z" />
<glyph unicode="&#xa7;" d="M20 -205v533h697v-287h-185v102h-327v-163h799v-185h-984zM20 389v553h185v-184h799v-185h-799v-184h-185zM20 1004v430h185v-246h307v205h184v-205h308v-184h-984z" />
<glyph unicode="&#xa8;" d="M250 1302.5q0 47.5 27.5 76t68.5 28.5t69.5 -28.5t28.5 -76t-27.5 -76t-70.5 -28.5q-41 0 -68.5 28.5t-27.5 76zM578 1302.5q0 47.5 27.5 76t68.5 28.5t69.5 -28.5t28.5 -76t-27.5 -76t-70.5 -28.5q-41 0 -68.5 28.5t-27.5 76z" />
<glyph unicode="&#x308;" d="M250 1302.5q0 47.5 27.5 76t68.5 28.5t69.5 -28.5t28.5 -76t-27.5 -76t-70.5 -28.5q-41 0 -68.5 28.5t-27.5 76zM578 1302.5q0 47.5 27.5 76t68.5 28.5t69.5 -28.5t28.5 -76t-27.5 -76t-70.5 -28.5q-41 0 -68.5 28.5t-27.5 76z" />
<glyph unicode="&#xa9;" d="M20 -205v533h697v-287h-185v102h-327v-163h799v-185h-984zM20 389v553h185v-184h799v-185h-799v-184h-185zM20 1004v430h185v-246h307v205h184v-205h308v-184h-984z" />
<glyph unicode="&#xaa;" d="M20 -205v533h697v-287h-185v102h-327v-163h799v-185h-984zM20 389v553h185v-184h799v-185h-799v-184h-185zM20 1004v430h185v-246h307v205h184v-205h308v-184h-984z" />
<glyph unicode="&#xab;" horiz-adv-x="839" d="M61 477q203 184 340 379h9q-47 -72 -91.5 -184.5t-58.5 -194.5q14 -82 58 -194.5t92 -184.5h-9q-137 195 -340 379zM389 477q203 184 340 379h8q-47 -72 -91 -184.5t-58 -194.5q14 -82 58 -194.5t91 -184.5h-8q-137 195 -340 379z" />
<glyph unicode="&#xac;" d="M20 -205v533h697v-287h-185v102h-327v-163h799v-185h-984zM20 389v553h185v-184h799v-185h-799v-184h-185zM20 1004v430h185v-246h307v205h184v-205h308v-184h-984z" />
<glyph unicode="&#xad;" horiz-adv-x="512" d="M41 416v121h430v-121h-430z" />
<glyph unicode="&#xae;" d="M20 -205v533h697v-287h-185v102h-327v-163h799v-185h-984zM20 389v553h185v-184h799v-185h-799v-184h-185zM20 1004v430h185v-246h307v205h184v-205h308v-184h-984z" />
<glyph unicode="&#xaf;" d="M254 1227v104h516v-104h-516z" />
<glyph unicode="&#x304;" d="M254 1227v104h516v-104h-516z" />
<glyph unicode="&#x2c9;" d="M254 1227v104h516v-104h-516z" />
<glyph unicode="&#xb0;" d="M20 -205v533h697v-287h-185v102h-327v-163h799v-185h-984zM20 389v553h185v-184h799v-185h-799v-184h-185zM20 1004v430h185v-246h307v205h184v-205h308v-184h-984z" />
<glyph unicode="&#xb1;" d="M20 -205v533h697v-287h-185v102h-327v-163h799v-185h-984zM20 389v553h185v-184h799v-185h-799v-184h-185zM20 1004v430h185v-246h307v205h184v-205h308v-184h-984z" />
<glyph unicode="&#xb2;" d="M20 -205v533h697v-287h-185v102h-327v-163h799v-185h-984zM20 389v553h185v-184h799v-185h-799v-184h-185zM20 1004v430h185v-246h307v205h184v-205h308v-184h-984z" />
<glyph unicode="&#xb3;" d="M20 -205v533h697v-287h-185v102h-327v-163h799v-185h-984zM20 389v553h185v-184h799v-185h-799v-184h-185zM20 1004v430h185v-246h307v205h184v-205h308v-184h-984z" />
<glyph unicode="&#xb4;" d="M358 997l150 383h158l-299 -383h-9z" />
<glyph unicode="&#x301;" d="M358 997l150 383h158l-299 -383h-9z" />
<glyph unicode="&#x2ca;" d="M358 997l150 383h158l-299 -383h-9z" />
<glyph unicode="&#xb5;" d="M20 -205v533h697v-287h-185v102h-327v-163h799v-185h-984zM20 389v553h185v-184h799v-185h-799v-184h-185zM20 1004v430h185v-246h307v205h184v-205h308v-184h-984z" />
<glyph unicode="&#xb6;" horiz-adv-x="1206" d="M92 922q0 215 136.5 350t367.5 135q143 0 324 -53v-1391q0 -195 -81 -292t-216 -97q-154 0 -234 64.5t-80 148.5q0 47 31 78t82 31q45 0 76.5 -31t31.5 -78q0 -39 -23.5 -81t-23.5 -54q0 -20 6.5 -33.5t39 -25t94.5 -11.5q135 0 211.5 96.5t76.5 286.5v494 q-98 -25 -321 -25q-207 0 -352.5 124t-145.5 364z" />
<glyph unicode="&#xb7;" horiz-adv-x="512" d="M152 479q0 49 28.5 80t73.5 31q47 0 75.5 -31t28.5 -80q0 -51 -28.5 -82.5t-73.5 -31.5q-47 0 -75.5 31.5t-28.5 82.5z" />
<glyph unicode="&#x2219;" horiz-adv-x="512" d="M152 479q0 49 28.5 80t73.5 31q47 0 75.5 -31t28.5 -80q0 -51 -28.5 -82.5t-73.5 -31.5q-47 0 -75.5 31.5t-28.5 82.5z" />
<glyph unicode="&#xb8;" d="M319 -317q0 25 15.5 40t40.5 15q23 0 38 -15.5t15 -39.5q0 -16 -11 -32t-11 -24q0 -16 18 -31.5t49 -15.5q125 0 125 154q0 80 -28.5 135t-110.5 117h8q158 -113 192 -152q43 -49 43 -106q0 -70 -63.5 -112t-165.5 -42q-59 0 -106.5 30t-47.5 79z" />
<glyph unicode="&#x327;" d="M319 -317q0 25 15.5 40t40.5 15q23 0 38 -15.5t15 -39.5q0 -16 -11 -32t-11 -24q0 -16 18 -31.5t49 -15.5q125 0 125 154q0 80 -28.5 135t-110.5 117h8q158 -113 192 -152q43 -49 43 -106q0 -70 -63.5 -112t-165.5 -42q-59 0 -106.5 30t-47.5 79z" />
<glyph unicode="&#xb9;" d="M20 -205v533h697v-287h-185v102h-327v-163h799v-185h-984zM20 389v553h185v-184h799v-185h-799v-184h-185zM20 1004v430h185v-246h307v205h184v-205h308v-184h-984z" />
<glyph unicode="&#xba;" d="M20 -205v533h697v-287h-185v102h-327v-163h799v-185h-984zM20 389v553h185v-184h799v-185h-799v-184h-185zM20 1004v430h185v-246h307v205h184v-205h308v-184h-984z" />
<glyph unicode="&#xbb;" horiz-adv-x="839" d="M102 98q47 72 91.5 184.5t58.5 194.5q-14 82 -58 194.5t-92 184.5h9q137 -195 340 -379q-203 -184 -340 -379h-9zM430 98q47 72 91 184.5t59 194.5q-14 82 -58.5 194.5t-91.5 184.5h8q137 -195 340 -379q-203 -184 -340 -379h-8z" />
<glyph unicode="&#xbc;" d="M20 -205v533h697v-287h-185v102h-327v-163h799v-185h-984zM20 389v553h185v-184h799v-185h-799v-184h-185zM20 1004v430h185v-246h307v205h184v-205h308v-184h-984z" />
<glyph unicode="&#xbd;" d="M20 -205v533h697v-287h-185v102h-327v-163h799v-185h-984zM20 389v553h185v-184h799v-185h-799v-184h-185zM20 1004v430h185v-246h307v205h184v-205h308v-184h-984z" />
<glyph unicode="&#xbe;" d="M20 -205v533h697v-287h-185v102h-327v-163h799v-185h-984zM20 389v553h185v-184h799v-185h-799v-184h-185zM20 1004v430h185v-246h307v205h184v-205h308v-184h-984z" />
<glyph unicode="&#xbf;" horiz-adv-x="899" d="M109 -119q0 135 97 226.5t304 189.5q66 31 92.5 60.5t26.5 72.5q0 59 -48.5 89t-115.5 30h-23v8h23q68 0 121 -30.5t53 -96.5q0 -45 -28.5 -76.5t-98.5 -64.5q-63 -31 -105 -76t-61.5 -101.5t-26 -106.5t-6.5 -118q0 -342 230 -342q72 0 110.5 27t38.5 55q0 12 -22.5 49 t-22.5 72q0 43 30 72.5t73 29.5q49 0 78.5 -28.5t29.5 -73.5q0 -88 -96 -149.5t-240 -61.5q-164 0 -288.5 88t-124.5 256zM428 829q0 51 28.5 83t73.5 32q47 0 76 -31.5t29 -83.5q0 -49 -28.5 -79.5t-74.5 -30.5q-47 0 -75.5 30.5t-28.5 79.5z" />
<glyph unicode="&#xc0;" horiz-adv-x="1382" d="M10 0v6l23 2q47 4 76.5 29.5t79 124t130.5 309.5l357 930h22l432 -1057q90 -221 126 -274.5t100 -61.5l16 -2v-6h-489v6l53 2q84 2 86 62q0 51 -82 264l-92 239h-481l-39 -102q-59 -154 -60 -299q0 -78 23.5 -119t91.5 -45l43 -2v-6h-416zM371 582h473l-238 616z M383 1679h178l129 -252h-8z" />
<glyph unicode="&#xc1;" horiz-adv-x="1382" d="M10 0v6l23 2q47 4 76.5 29.5t79 124t130.5 309.5l357 930h22l432 -1057q90 -221 126 -274.5t100 -61.5l16 -2v-6h-489v6l53 2q84 2 86 62q0 51 -82 264l-92 239h-481l-39 -102q-59 -154 -60 -299q0 -78 23.5 -119t91.5 -45l43 -2v-6h-416zM371 582h473l-238 616z M688 1427l129 252h178l-299 -252h-8z" />
<glyph unicode="&#xc2;" horiz-adv-x="1382" d="M10 0v6l23 2q47 4 76.5 29.5t79 124t130.5 309.5l357 930h22l432 -1057q90 -221 126 -274.5t100 -61.5l16 -2v-6h-489v6l53 2q84 2 86 62q0 51 -82 264l-92 239h-481l-39 -102q-59 -154 -60 -299q0 -78 23.5 -119t91.5 -45l43 -2v-6h-416zM371 582h473l-238 616z M481 1427l119 252h178l119 -252h-8l-201 187l-199 -187h-8z" />
<glyph unicode="&#xc3;" horiz-adv-x="1382" d="M10 0v6l23 2q47 4 76.5 29.5t79 124t130.5 309.5l357 930h22l432 -1057q90 -221 126 -274.5t100 -61.5l16 -2v-6h-489v6l53 2q84 2 86 62q0 51 -82 264l-92 239h-481l-39 -102q-59 -154 -60 -299q0 -78 23.5 -119t91.5 -45l43 -2v-6h-416zM371 582h473l-238 616z M459 1432q23 221 133 221q31 0 123 -33t121 -33q55 0 71 45q10 27 15 64h8q-23 -221 -133 -221q-31 0 -123 32.5t-121 32.5q-55 0 -72 -45q-10 -29 -14 -63h-8z" />
<glyph unicode="&#xc4;" horiz-adv-x="1382" d="M10 0v6l23 2q47 4 76.5 29.5t79 124t130.5 309.5l357 930h22l432 -1057q90 -221 126 -274.5t100 -61.5l16 -2v-6h-489v6l53 2q84 2 86 62q0 51 -82 264l-92 239h-481l-39 -102q-59 -154 -60 -299q0 -78 23.5 -119t91.5 -45l43 -2v-6h-416zM371 582h473l-238 616z M424 1575q0 47 27.5 75.5t68.5 28.5t69.5 -28.5t28.5 -75.5t-27.5 -76t-70.5 -29q-41 0 -68.5 29t-27.5 76zM752 1575q0 47 27.5 75.5t68.5 28.5t69.5 -28.5t28.5 -75.5t-27.5 -76t-70.5 -29q-41 0 -68.5 29t-27.5 76z" />
<glyph unicode="&#xc5;" horiz-adv-x="1382" d="M10 0v6l23 2q47 4 76.5 29.5t79 124t130.5 309.5l357 930h22l432 -1057q90 -221 126 -274.5t100 -61.5l16 -2v-6h-489v6l53 2q84 2 86 62q0 51 -82 264l-92 239h-481l-39 -102q-59 -154 -60 -299q0 -78 23.5 -119t91.5 -45l43 -2v-6h-416zM371 582h473l-238 616z M510 1605.5q0 67.5 49 112.5t129 45q78 0 128 -45t50 -112.5t-49 -112.5t-129 -45q-78 0 -128 45t-50 112.5zM604 1606q0 -150 84 -150q86 0 86 150q0 147 -86 147q-84 0 -84 -147z" />
<glyph unicode="&#xc6;" horiz-adv-x="1990" d="M10 0v6l23 2q72 6 153.5 96.5t237.5 366.5l504 883q-18 14 -74 18l-84 2v6h1004v-370h-7l-22 69q-31 96 -74 156.5t-99 89.5t-110.5 38t-134.5 9h-72q-68 0 -82 -49t-14 -260v-401h76q45 0 76.5 5t68.5 22.5t65 56t44 100.5l12 45h6v-467h-6l-12 45q-16 61 -44 100 t-65 56.5t-68.5 22.5t-76.5 5h-76v-336q0 -211 14.5 -260t81.5 -49h113q113 0 178.5 21.5t128 100.5t111.5 232l22 70h7v-432h-1004v6l43 2q55 2 76.5 21.5t32 82t10.5 205.5v336h-434l-105 -182q-156 -276 -155 -342q0 -115 104 -121l43 -2v-6h-416zM543 662h430v401 q0 242 -37 285z" />
<glyph unicode="&#xc7;" horiz-adv-x="1396" d="M113 688q0 190 69.5 350t219 264.5t354.5 104.5q135 0 239 -70q41 -29 66 -28q45 0 127 98h4v-397h-6l-23 69q-45 139 -148.5 229.5t-254.5 90.5q-119 0 -207 -59.5t-136 -163t-70.5 -224.5t-22.5 -262t22.5 -262t70.5 -224.5t136 -162.5t207 -59q94 0 174 38.5t132 101 t86 122t52 118.5l23 70h6v-459h-4q-88 113 -148 113q-27 0 -73 -33q-119 -80 -252 -80q-43 0 -80 7l98 -72q25 -18 64 -53t51 -64t12 -63q0 -70 -63.5 -112t-165.5 -42q-59 0 -106.5 29.5t-47.5 79.5q0 25 15.5 40t39.5 15q23 0 38.5 -15.5t15.5 -39.5q0 -16 -11.5 -32 t-11.5 -24q0 -16 18.5 -31.5t49.5 -15.5q125 0 125 154q0 78 -28 133t-103 113q-262 33 -407.5 235.5t-145.5 472.5z" />
<glyph unicode="&#xc8;" horiz-adv-x="1282" d="M63 0v6l43 2q55 2 77 21.5t32 82t10 205.5v746q0 143 -10 205.5t-31.5 82t-77.5 21.5l-43 2v6h1004v-370h-6l-23 69q-31 96 -73.5 156.5t-99 89.5t-111 38t-133.5 9h-113q-68 0 -82 -49t-14 -260v-350h116q45 0 77 5t69 22.5t64.5 56.5t43.5 100l13 45h6v-467h-6l-13 45 q-16 61 -43.5 100t-64.5 56.5t-69 23t-77 5.5h-116v-388q0 -211 14 -260t82 -49h154q113 0 178 21.5t127.5 100.5t111.5 232l23 70h6v-432h-1045zM348 1679h178l129 -252h-8z" />
<glyph unicode="&#xc9;" horiz-adv-x="1282" d="M63 0v6l43 2q55 2 77 21.5t32 82t10 205.5v746q0 143 -10 205.5t-31.5 82t-77.5 21.5l-43 2v6h1004v-370h-6l-23 69q-31 96 -73.5 156.5t-99 89.5t-111 38t-133.5 9h-113q-68 0 -82 -49t-14 -260v-350h116q45 0 77 5t69 22.5t64.5 56.5t43.5 100l13 45h6v-467h-6l-13 45 q-16 61 -43.5 100t-64.5 56.5t-69 23t-77 5.5h-116v-388q0 -211 14 -260t82 -49h154q113 0 178 21.5t127.5 100.5t111.5 232l23 70h6v-432h-1045zM625 1427l129 252h178l-299 -252h-8z" />
<glyph unicode="&#xca;" horiz-adv-x="1282" d="M63 0v6l43 2q55 2 77 21.5t32 82t10 205.5v746q0 143 -10 205.5t-31.5 82t-77.5 21.5l-43 2v6h1004v-370h-6l-23 69q-31 96 -73.5 156.5t-99 89.5t-111 38t-133.5 9h-113q-68 0 -82 -49t-14 -260v-350h116q45 0 77 5t69 22.5t64.5 56.5t43.5 100l13 45h6v-467h-6l-13 45 q-16 61 -43.5 100t-64.5 56.5t-69 23t-77 5.5h-116v-388q0 -211 14 -260t82 -49h154q113 0 178 21.5t127.5 100.5t111.5 232l23 70h6v-432h-1045zM444 1427l119 252h178l119 -252h-8l-201 187l-198 -187h-9z" />
<glyph unicode="&#xcb;" horiz-adv-x="1282" d="M63 0v6l43 2q55 2 77 21.5t32 82t10 205.5v746q0 143 -10 205.5t-31.5 82t-77.5 21.5l-43 2v6h1004v-370h-6l-23 69q-31 96 -73.5 156.5t-99 89.5t-111 38t-133.5 9h-113q-68 0 -82 -49t-14 -260v-350h116q45 0 77 5t69 22.5t64.5 56.5t43.5 100l13 45h6v-467h-6l-13 45 q-16 61 -43.5 100t-64.5 56.5t-69 23t-77 5.5h-116v-388q0 -211 14 -260t82 -49h154q113 0 178 21.5t127.5 100.5t111.5 232l23 70h6v-432h-1045zM377 1575q0 47 27.5 75.5t68.5 28.5t69.5 -28.5t28.5 -75.5t-27.5 -76t-70.5 -29q-41 0 -68.5 29t-27.5 76zM705 1575 q0 47 27.5 75.5t68.5 28.5t69.5 -28.5t28.5 -75.5t-27.5 -76t-70.5 -29q-41 0 -68.5 29t-27.5 76z" />
<glyph unicode="&#xcc;" horiz-adv-x="636" d="M27 1679h178l129 -252h-8zM63 0v6l43 2q55 2 77 21.5t32 82t10 205.5v746q0 143 -10 205.5t-31.5 82t-77.5 21.5l-43 2v6h510v-6l-43 -2q-55 -2 -76.5 -21.5t-31.5 -82t-10 -205.5v-746q0 -143 10 -205.5t31.5 -82t76.5 -21.5l43 -2v-6h-510z" />
<glyph unicode="&#xcd;" horiz-adv-x="636" d="M63 0v6l43 2q55 2 77 21.5t32 82t10 205.5v746q0 143 -10 205.5t-31.5 82t-77.5 21.5l-43 2v6h510v-6l-43 -2q-55 -2 -76.5 -21.5t-31.5 -82t-10 -205.5v-746q0 -143 10 -205.5t31.5 -82t76.5 -21.5l43 -2v-6h-510zM297 1427l129 252h178l-299 -252h-8z" />
<glyph unicode="&#xce;" horiz-adv-x="636" d="M63 0v6l43 2q55 2 77 21.5t32 82t10 205.5v746q0 143 -10 205.5t-31.5 82t-77.5 21.5l-43 2v6h510v-6l-43 -2q-55 -2 -76.5 -21.5t-31.5 -82t-10 -205.5v-746q0 -143 10 -205.5t31.5 -82t76.5 -21.5l43 -2v-6h-510zM113 1427l118 252h179l118 -252h-8l-201 187l-198 -187 h-8z" />
<glyph unicode="&#xcf;" horiz-adv-x="636" d="M55 1575q0 47 28 75.5t69 28.5t69.5 -28.5t28.5 -75.5t-27.5 -76t-70.5 -29q-41 0 -69 29t-28 76zM63 0v6l43 2q55 2 77 21.5t32 82t10 205.5v746q0 143 -10 205.5t-31.5 82t-77.5 21.5l-43 2v6h510v-6l-43 -2q-55 -2 -76.5 -21.5t-31.5 -82t-10 -205.5v-746 q0 -143 10 -205.5t31.5 -82t76.5 -21.5l43 -2v-6h-510zM383 1575q0 47 27.5 75.5t68.5 28.5t70 -28.5t29 -75.5t-28 -76t-71 -29q-41 0 -68.5 29t-27.5 76z" />
<glyph unicode="&#xd0;" horiz-adv-x="1519" d="M20 711v8h205v344q0 143 -10 205.5t-31.5 82t-77.5 21.5l-43 2v6h672q328 0 510 -195.5t182 -492.5q0 -295 -186 -493.5t-504 -198.5h-674v6l43 2q55 2 77 21.5t32 82t10 205.5v394h-205zM412 317q0 -211 14 -260t82 -49h227q166 0 277.5 100.5t158 249t46.5 332.5 q0 186 -52.5 338t-164 248t-265.5 96h-227q-68 0 -82 -49t-14 -260v-344h366v-8h-366v-394z" />
<glyph unicode="&#xd1;" horiz-adv-x="1597" d="M63 0v6l23 2q84 8 121 126t37 358v571q0 137 -16.5 204.5t-43 85t-84.5 19.5l-37 2v6h338l945 -1144v653q0 68 -12.5 145.5t-36 154.5t-66.5 129t-98 54l-43 2v6h444v-6l-23 -2q-84 -8 -120.5 -126t-36.5 -357v-907h-29l-1073 1275v-765q0 -68 12 -146t36 -154.5t67 -129 t98 -54.5l43 -2v-6h-445zM578 1432q23 221 133 221q31 0 123 -33t120 -33q55 0 72 45q10 27 14 64h9q-23 -221 -134 -221q-31 0 -123 32.5t-120 32.5q-55 0 -72 -45q-10 -29 -14 -63h-8z" />
<glyph unicode="&#xd2;" horiz-adv-x="1536" d="M92 692q0 297 182.5 506t493.5 209t493.5 -209t182.5 -506t-182.5 -508t-493.5 -211t-493.5 211t-182.5 508zM303 690q0 -145 23.5 -267t76 -224.5t145.5 -159.5t220 -57t220 57t145.5 158.5t76 223.5t23.5 269q0 145 -23.5 267t-76 224.5t-145.5 160t-220 57.5 t-220 -57.5t-145.5 -159t-76 -223.5t-23.5 -269zM471 1679h178l129 -252h-8z" />
<glyph unicode="&#xd3;" horiz-adv-x="1536" d="M92 692q0 297 182.5 506t493.5 209t493.5 -209t182.5 -506t-182.5 -508t-493.5 -211t-493.5 211t-182.5 508zM303 690q0 -145 23.5 -267t76 -224.5t145.5 -159.5t220 -57t220 57t145.5 158.5t76 223.5t23.5 269q0 145 -23.5 267t-76 224.5t-145.5 160t-220 57.5 t-220 -57.5t-145.5 -159t-76 -223.5t-23.5 -269zM739 1427l129 252h179l-299 -252h-9z" />
<glyph unicode="&#xd4;" horiz-adv-x="1536" d="M92 692q0 297 182.5 506t493.5 209t493.5 -209t182.5 -506t-182.5 -508t-493.5 -211t-493.5 211t-182.5 508zM303 690q0 -145 23.5 -267t76 -224.5t145.5 -159.5t220 -57t220 57t145.5 158.5t76 223.5t23.5 269q0 145 -23.5 267t-76 224.5t-145.5 160t-220 57.5 t-220 -57.5t-145.5 -159t-76 -223.5t-23.5 -269zM557 1427l119 252h178l119 -252h-8l-201 187l-199 -187h-8z" />
<glyph unicode="&#xd5;" horiz-adv-x="1536" d="M92 692q0 297 182.5 506t493.5 209t493.5 -209t182.5 -506t-182.5 -508t-493.5 -211t-493.5 211t-182.5 508zM303 690q0 -145 23.5 -267t76 -224.5t145.5 -159.5t220 -57t220 57t145.5 158.5t76 223.5t23.5 269q0 145 -23.5 267t-76 224.5t-145.5 160t-220 57.5 t-220 -57.5t-145.5 -159t-76 -223.5t-23.5 -269zM543 1432q23 221 133 221q31 0 123 -33t121 -33q55 0 71 45q8 27 15 64h8q-23 -221 -133 -221q-31 0 -123 32.5t-121 32.5q-55 0 -72 -45q-8 -29 -14 -63h-8z" />
<glyph unicode="&#xd6;" horiz-adv-x="1536" d="M92 692q0 297 182.5 506t493.5 209t493.5 -209t182.5 -506t-182.5 -508t-493.5 -211t-493.5 211t-182.5 508zM303 690q0 -145 23.5 -267t76 -224.5t145.5 -159.5t220 -57t220 57t145.5 158.5t76 223.5t23.5 269q0 145 -23.5 267t-76 224.5t-145.5 160t-220 57.5 t-220 -57.5t-145.5 -159t-76 -223.5t-23.5 -269zM504 1575q0 47 27.5 75.5t68.5 28.5t69.5 -28.5t28.5 -75.5t-27.5 -76t-70.5 -29q-41 0 -68.5 29t-27.5 76zM831 1575q0 47 28 75.5t69 28.5t69.5 -28.5t28.5 -75.5t-27.5 -76t-70.5 -29q-41 0 -69 29t-28 76z" />
<glyph unicode="&#xd7;" d="M119 203l313 313l-313 315l78 80l315 -315l315 315l78 -80l-313 -315l313 -313l-80 -78l-313 311l-313 -311z" />
<glyph unicode="&#xd8;" horiz-adv-x="1499" d="M92 692q0 297 182.5 506t493.5 209q186 0 336 -84l115 195l8 -5l-115 -194q158 -92 245 -260t87 -367q0 -297 -182.5 -508t-493.5 -211q-219 0 -387 115l-129 -219l-6 4l129 219q-135 98 -209 258t-74 342zM303 690q0 -338 117 -522l651 1102q-117 129 -303 129 q-127 0 -220 -57.5t-145.5 -159t-76 -223.5t-23.5 -269zM424 160q121 -178 344 -178q127 0 220 57t145.5 158.5t76 223.5t23.5 269q0 387 -156 572z" />
<glyph unicode="&#xd9;" horiz-adv-x="1595" d="M63 1374v6h510v-6l-43 -2q-55 -2 -76.5 -21.5t-31.5 -82t-10 -205.5v-604q0 -209 118.5 -329t343.5 -120q219 0 343 126t124 321v432q0 68 -12 145.5t-35.5 154.5t-66.5 129t-99 54l-43 2v6h447v-6l-23 -2q-160 -14 -159 -483v-432q0 -215 -146.5 -347.5t-402.5 -132.5 q-264 0 -420 129.5t-156 350.5v606q0 143 -10 205.5t-31.5 82t-77.5 21.5zM535 1679h178l129 -252h-8z" />
<glyph unicode="&#xda;" horiz-adv-x="1595" d="M63 1374v6h510v-6l-43 -2q-55 -2 -76.5 -21.5t-31.5 -82t-10 -205.5v-604q0 -209 118.5 -329t343.5 -120q219 0 343 126t124 321v432q0 68 -12 145.5t-35.5 154.5t-66.5 129t-99 54l-43 2v6h447v-6l-23 -2q-160 -14 -159 -483v-432q0 -215 -146.5 -347.5t-402.5 -132.5 q-264 0 -420 129.5t-156 350.5v606q0 143 -10 205.5t-31.5 82t-77.5 21.5zM815 1427l129 252h178l-299 -252h-8z" />
<glyph unicode="&#xdb;" horiz-adv-x="1595" d="M63 1374v6h510v-6l-43 -2q-55 -2 -76.5 -21.5t-31.5 -82t-10 -205.5v-604q0 -209 118.5 -329t343.5 -120q219 0 343 126t124 321v432q0 68 -12 145.5t-35.5 154.5t-66.5 129t-99 54l-43 2v6h447v-6l-23 -2q-160 -14 -159 -483v-432q0 -215 -146.5 -347.5t-402.5 -132.5 q-264 0 -420 129.5t-156 350.5v606q0 143 -10 205.5t-31.5 82t-77.5 21.5zM621 1427l118 252h179l118 -252h-8l-201 187l-198 -187h-8z" />
<glyph unicode="&#xdc;" horiz-adv-x="1595" d="M63 1374v6h510v-6l-43 -2q-55 -2 -76.5 -21.5t-31.5 -82t-10 -205.5v-604q0 -209 118.5 -329t343.5 -120q219 0 343 126t124 321v432q0 68 -12 145.5t-35.5 154.5t-66.5 129t-99 54l-43 2v6h447v-6l-23 -2q-160 -14 -159 -483v-432q0 -215 -146.5 -347.5t-402.5 -132.5 q-264 0 -420 129.5t-156 350.5v606q0 143 -10 205.5t-31.5 82t-77.5 21.5zM563 1575q0 47 27.5 75.5t68.5 28.5t70 -28.5t29 -75.5t-28 -76t-71 -29q-41 0 -68.5 29t-27.5 76zM891 1575q0 47 27.5 75.5t68.5 28.5t69.5 -28.5t28.5 -75.5t-27.5 -76t-70.5 -29q-41 0 -68.5 29 t-27.5 76z" />
<glyph unicode="&#xdd;" horiz-adv-x="1314" d="M2 1374v6h506v-6l-43 -2q-88 -6 -72 -80q12 -55 131 -245l219 -357l144 219q137 209 137 322q0 66 -23.5 101.5t-91.5 39.5l-43 2v6h447v-6l-43 -2q-55 -2 -117.5 -82t-257.5 -385l-147 -227v-361q0 -143 10 -205.5t31.5 -82t76.5 -21.5l43 -2v-6h-510v6l43 2 q55 2 77 21.5t32 82t10 205.5v355l-237 364l-52 78l-43 68l-34 53l-31 45q-10 14 -25.5 33.5t-25.5 26.5l-23 17q-12 9 -24.5 12t-26.5 3zM387 1679h178l129 -252h-8z" />
<glyph unicode="&#xde;" horiz-adv-x="1312" d="M63 0v6l43 2q55 2 77 21.5t32 82t10 205.5v746q0 143 -10 205.5t-31.5 82t-77.5 21.5l-43 2v6h510v-6l-43 -2q-72 -2 -95 -31.5t-23 -103.5h315q223 0 353 -108.5t130 -311.5q0 -195 -123.5 -319.5t-351.5 -124.5h-323v-56q0 -143 10 -205.5t31.5 -82t76.5 -21.5l43 -2 v-6h-510zM412 381h323q248 0 248 434q0 180 -61.5 297t-194.5 117h-315v-848z" />
<glyph unicode="&#xdf;" horiz-adv-x="1202" d="M72 0v6l41 2q43 2 58 14.5t24.5 67.5t9.5 191v743q0 158 122 270.5t310 112.5q145 0 250.5 -49t105.5 -160q0 -63 -41 -110.5t-99 -76.5l-117 -59q-58 -29 -99 -70.5t-41 -97.5q0 -72 53 -122t130 -82.5t153 -69.5t130 -106.5t54 -170.5q0 -115 -96 -187.5t-252 -72.5 q-150 0 -222.5 55.5t-72.5 118.5q0 47 26.5 70t63.5 23q35 0 60.5 -22.5t25.5 -55.5q0 -41 -34.5 -71t-34.5 -44q0 -10 11 -23.5t57 -27.5t120 -14q109 0 174.5 45t65.5 137q0 70 -53.5 119t-129 80.5t-150.5 66.5t-128 100.5t-53 159.5q0 63 36.5 113.5t89.5 85.5l105 72 q53 37 90 91t37 124q0 100 -55.5 161.5t-167.5 61.5q-121 0 -187.5 -71t-66.5 -210v-1118h-303z" />
<glyph unicode="&#xe0;" horiz-adv-x="1036" d="M88 240q0 246 379 245q129 0 242 -49v281q0 106 -57.5 162.5t-168.5 56.5q-154 0 -153 -57q0 -10 22.5 -47t22.5 -74q0 -43 -30 -73t-73 -30q-49 0 -78.5 29t-29.5 74q0 80 85 133t232 53q164 0 281 -83t117 -238v-342q0 -135 9 -190.5t24.5 -68t58.5 -14.5l41 -2v-6 h-299v141q-98 -164 -281 -164q-154 0 -249 70t-95 193zM225 1380h158l149 -383h-8zM279 229q0 -227 208 -227q66 0 126.5 42t95.5 108v274q-104 49 -215 49q-215 0 -215 -246z" />
<glyph unicode="&#xe1;" horiz-adv-x="1036" d="M88 240q0 246 379 245q129 0 242 -49v281q0 106 -57.5 162.5t-168.5 56.5q-154 0 -153 -57q0 -10 22.5 -47t22.5 -74q0 -43 -30 -73t-73 -30q-49 0 -78.5 29t-29.5 74q0 80 85 133t232 53q164 0 281 -83t117 -238v-342q0 -135 9 -190.5t24.5 -68t58.5 -14.5l41 -2v-6 h-299v141q-98 -164 -281 -164q-154 0 -249 70t-95 193zM279 229q0 -227 208 -227q66 0 126.5 42t95.5 108v274q-104 49 -215 49q-215 0 -215 -246zM461 997l149 383h158l-299 -383h-8z" />
<glyph unicode="&#xe2;" horiz-adv-x="1036" d="M88 240q0 246 379 245q129 0 242 -49v281q0 106 -57.5 162.5t-168.5 56.5q-154 0 -153 -57q0 -10 22.5 -47t22.5 -74q0 -43 -30 -73t-73 -30q-49 0 -78.5 29t-29.5 74q0 80 85 133t232 53q164 0 281 -83t117 -238v-342q0 -135 9 -190.5t24.5 -68t58.5 -14.5l41 -2v-6 h-299v141q-98 -164 -281 -164q-154 0 -249 70t-95 193zM270 997l181 383h137l180 -383h-8l-242 297l-239 -297h-9zM279 229q0 -227 208 -227q66 0 126.5 42t95.5 108v274q-104 49 -215 49q-215 0 -215 -246z" />
<glyph unicode="&#xe3;" horiz-adv-x="1036" d="M88 240q0 246 379 245q129 0 242 -49v281q0 106 -57.5 162.5t-168.5 56.5q-154 0 -153 -57q0 -10 22.5 -47t22.5 -74q0 -43 -30 -73t-73 -30q-49 0 -78.5 29t-29.5 74q0 80 85 133t232 53q164 0 281 -83t117 -238v-342q0 -135 9 -190.5t24.5 -68t58.5 -14.5l41 -2v-6 h-299v141q-98 -164 -281 -164q-154 0 -249 70t-95 193zM244 1065q14 135 52 193.5t101 58.5q33 0 133.5 -33t137.5 -33q68 0 88 64q8 25 18 76h8q-14 -135 -51 -193.5t-100 -58.5q-33 0 -134.5 32.5t-138.5 32.5q-68 0 -88 -63q-8 -25 -18 -76h-8zM279 229q0 -227 208 -227 q66 0 126.5 42t95.5 108v274q-104 49 -215 49q-215 0 -215 -246z" />
<glyph unicode="&#xe4;" horiz-adv-x="1036" d="M88 240q0 246 379 245q129 0 242 -49v281q0 106 -57.5 162.5t-168.5 56.5q-154 0 -153 -57q0 -10 22.5 -47t22.5 -74q0 -43 -30 -73t-73 -30q-49 0 -78.5 29t-29.5 74q0 80 85 133t232 53q164 0 281 -83t117 -238v-342q0 -135 9 -190.5t24.5 -68t58.5 -14.5l41 -2v-6 h-299v141q-98 -164 -281 -164q-154 0 -249 70t-95 193zM252 1302.5q0 47.5 27.5 76t68.5 28.5t69.5 -28.5t28.5 -76t-27.5 -76t-70.5 -28.5q-41 0 -68.5 28.5t-27.5 76zM279 229q0 -227 208 -227q66 0 126.5 42t95.5 108v274q-104 49 -215 49q-215 0 -215 -246zM580 1302.5 q0 47.5 27.5 76t68.5 28.5t69.5 -28.5t28.5 -76t-27.5 -76t-70.5 -28.5q-41 0 -68.5 28.5t-27.5 76z" />
<glyph unicode="&#xe5;" horiz-adv-x="1036" d="M88 240q0 246 379 245q129 0 242 -49v281q0 106 -57.5 162.5t-168.5 56.5q-154 0 -153 -57q0 -10 22.5 -47t22.5 -74q0 -43 -30 -73t-73 -30q-49 0 -78.5 29t-29.5 74q0 80 85 133t232 53q164 0 281 -83t117 -238v-342q0 -135 9 -190.5t24.5 -68t58.5 -14.5l41 -2v-6 h-299v141q-98 -164 -281 -164q-154 0 -249 70t-95 193zM279 229q0 -227 208 -227q66 0 126.5 42t95.5 108v274q-104 49 -215 49q-215 0 -215 -246zM285 1210q0 84 60.5 140.5t156.5 56.5q98 0 157.5 -56.5t59.5 -140.5t-59.5 -140t-157.5 -56q-96 0 -156.5 56t-60.5 140z M385 1210q0 -76 29.5 -132t87.5 -56q59 0 89 55.5t30 132.5q0 76 -30 132.5t-89.5 56.5t-88 -55.5t-28.5 -133.5z" />
<glyph unicode="&#xe6;" horiz-adv-x="1665" d="M88 240q0 246 379 245q129 0 242 -49v281q0 106 -57.5 162.5t-168.5 56.5q-154 0 -153 -57q0 -10 22.5 -47t22.5 -74q0 -43 -30 -73t-73 -30q-49 0 -78.5 29t-29.5 74q0 80 85 133t232 53q225 0 336 -137q113 137 316 137q211 0 311 -113.5t100 -308.5h-649v-49 q0 -96 10 -166.5t39 -147.5t94.5 -119t165.5 -42q268 0 328 246l10 -2q-59 -268 -379 -269q-252 0 -372 183q-76 -104 -163 -141.5t-196 -37.5q-154 0 -249 70t-95 193zM279 229q0 -127 61 -179t154 -52q174 0 290 164q-70 109 -75 264q-104 49 -215 49q-215 0 -215 -246z M895 530h457q0 86 -7.5 148.5t-28 126t-66.5 97.5t-117 34q-141 0 -188.5 -99.5t-49.5 -306.5z" />
<glyph unicode="&#xe7;" horiz-adv-x="995" d="M72 457q0 209 122.5 348t358.5 139q154 0 244 -65.5t90 -147.5q0 -47 -31 -77.5t-82 -30.5q-45 0 -76.5 30.5t-31.5 77.5q0 39 23.5 81t23.5 54q0 70 -160 70q-74 0 -128 -27.5t-84 -68.5t-47.5 -106.5t-21.5 -124t-4 -136.5q0 -76 4 -132t22.5 -125t50.5 -113 t90.5 -74.5t137.5 -30.5q264 0 324 246l10 -2q-59 -268 -375 -269q-23 0 -55 4q150 -109 182 -147q41 -47 41 -102q0 -70 -63.5 -112t-165.5 -42q-59 0 -106.5 29.5t-47.5 79.5q0 25 15.5 40t40.5 15q23 0 38 -15.5t15 -39.5q0 -16 -11.5 -32t-11.5 -24q0 -16 18.5 -31.5 t49.5 -15.5q125 0 125 154q0 78 -26.5 132t-102.5 111q-188 23 -291.5 160.5t-103.5 319.5z" />
<glyph unicode="&#xe8;" horiz-adv-x="1038" d="M72 457q0 240 123.5 363.5t310.5 123.5q211 0 311.5 -113.5t100.5 -308.5h-650v-49q0 -96 10.5 -166.5t39 -147.5t94 -119t166.5 -42q268 0 327 246l10 -2q-59 -268 -378 -269q-217 0 -341 143.5t-124 340.5zM227 1380h158l150 -383h-9zM268 530h457q0 86 -7 148.5 t-27.5 126t-66.5 97.5t-118 34q-141 0 -188.5 -99.5t-49.5 -306.5z" />
<glyph unicode="&#xe9;" horiz-adv-x="1038" d="M72 457q0 240 123.5 363.5t310.5 123.5q211 0 311.5 -113.5t100.5 -308.5h-650v-49q0 -96 10.5 -166.5t39 -147.5t94 -119t166.5 -42q268 0 327 246l10 -2q-59 -268 -378 -269q-217 0 -341 143.5t-124 340.5zM268 530h457q0 86 -7 148.5t-27.5 126t-66.5 97.5t-118 34 q-141 0 -188.5 -99.5t-49.5 -306.5zM504 997l149 383h158l-299 -383h-8z" />
<glyph unicode="&#xea;" horiz-adv-x="1038" d="M72 457q0 240 123.5 363.5t310.5 123.5q211 0 311.5 -113.5t100.5 -308.5h-650v-49q0 -96 10.5 -166.5t39 -147.5t94 -119t166.5 -42q268 0 327 246l10 -2q-59 -268 -378 -269q-217 0 -341 143.5t-124 340.5zM268 530h457q0 86 -7 148.5t-27.5 126t-66.5 97.5t-118 34 q-141 0 -188.5 -99.5t-49.5 -306.5zM279 997l180 383h137l180 -383h-8l-242 297l-239 -297h-8z" />
<glyph unicode="&#xeb;" horiz-adv-x="1038" d="M72 457q0 240 123.5 363.5t310.5 123.5q211 0 311.5 -113.5t100.5 -308.5h-650v-49q0 -96 10.5 -166.5t39 -147.5t94 -119t166.5 -42q268 0 327 246l10 -2q-59 -268 -378 -269q-217 0 -341 143.5t-124 340.5zM268 530h457q0 86 -7 148.5t-27.5 126t-66.5 97.5t-118 34 q-141 0 -188.5 -99.5t-49.5 -306.5zM285 1302.5q0 47.5 27.5 76t68.5 28.5t69.5 -28.5t28.5 -76t-27.5 -76t-70.5 -28.5q-41 0 -68.5 28.5t-27.5 76zM612 1302.5q0 47.5 28 76t69 28.5t69.5 -28.5t28.5 -76t-27.5 -76t-70.5 -28.5q-41 0 -69 28.5t-28 76z" />
<glyph unicode="&#xec;" horiz-adv-x="497" d="M-27 1380h158l150 -383h-9zM72 0v6l41 2q43 2 58 14.5t24.5 67.5t9.5 191v358q0 135 -9.5 190.5t-24.5 67.5t-58 14l-41 2v7h303v-639q0 -135 9 -190.5t24.5 -68t58.5 -14.5l41 -2v-6h-436z" />
<glyph unicode="&#xed;" horiz-adv-x="497" d="M72 0v6l41 2q43 2 58 14.5t24.5 67.5t9.5 191v358q0 135 -9.5 190.5t-24.5 67.5t-58 14l-41 2v7h303v-639q0 -135 9 -190.5t24.5 -68t58.5 -14.5l41 -2v-6h-436zM256 997l150 383h157l-299 -383h-8z" />
<glyph unicode="&#xee;" horiz-adv-x="497" d="M27 997l180 383h137l180 -383h-8l-242 297l-239 -297h-8zM72 0v6l41 2q43 2 58 14.5t24.5 67.5t9.5 191v358q0 135 -9.5 190.5t-24.5 67.5t-58 14l-41 2v7h303v-639q0 -135 9 -190.5t24.5 -68t58.5 -14.5l41 -2v-6h-436z" />
<glyph unicode="&#xef;" horiz-adv-x="497" d="M14 1302.5q0 47.5 28 76t69 28.5t69.5 -28.5t28.5 -76t-27.5 -76t-70.5 -28.5q-41 0 -69 28.5t-28 76zM72 0v6l41 2q43 2 58 14.5t24.5 67.5t9.5 191v358q0 135 -9.5 190.5t-24.5 67.5t-58 14l-41 2v7h303v-639q0 -135 9 -190.5t24.5 -68t58.5 -14.5l41 -2v-6h-436z M342 1302.5q0 47.5 27.5 76t68.5 28.5t70 -28.5t29 -76t-28 -76t-71 -28.5q-41 0 -68.5 28.5t-27.5 76z" />
<glyph unicode="&#xf0;" horiz-adv-x="1071" d="M72 463q0 211 122.5 347t340.5 136q66 0 133 -26q-55 92 -154 221l-281 -49v8l277 49l-33 43q-53 72 -78.5 101.5t-57.5 54t-62 24.5l-52 2v6h305l134 -188q2 -6 10 -14l242 43v-9l-238 -43q193 -274 256 -414.5t63 -295.5q0 -211 -123.5 -348.5t-340.5 -137.5 q-215 0 -339 139.5t-124 350.5zM270 461q0 -90 11.5 -167t39 -151.5t82 -117.5t132.5 -43q264 0 264 475q0 233 -125 450q-74 31 -139 31q-82 0 -137.5 -39t-82 -112.5t-36 -149.5t-9.5 -176z" />
<glyph unicode="&#xf1;" horiz-adv-x="1161" d="M49 0v6l41 2q43 2 58.5 14.5t24.5 67.5t9 191v358q0 135 -9 190.5t-24.5 67.5t-58.5 14l-41 2v7h299v-142q104 164 291 164q154 0 259.5 -86t105.5 -240v-335q0 -135 9 -190.5t24.5 -68t58.5 -14.5l41 -2v-6h-437v6l41 2q43 2 58.5 14.5t25 67.5t9.5 191v337 q0 152 -61.5 226t-166.5 74q-166 0 -254 -150v-487q0 -135 9.5 -190.5t24.5 -68t58 -14.5l41 -2v-6h-436zM322 1065q14 135 52 193.5t101 58.5q33 0 133.5 -33t136.5 -33q68 0 89 64q8 25 18 76h8q-14 -135 -51 -193.5t-100 -58.5q-33 0 -134.5 32.5t-138.5 32.5 q-68 0 -88 -63q-8 -25 -18 -76h-8z" />
<glyph unicode="&#xf2;" horiz-adv-x="1069" d="M72 461q0 201 126 342t337 141q213 0 338.5 -142.5t125.5 -343t-125.5 -343t-338.5 -142.5q-211 0 -337 143.5t-126 344.5zM246 1380h157l150 -383h-8zM270 459q0 -106 11.5 -187.5t40 -150t82 -104t131.5 -35.5q150 0 207 124.5t57 350t-57.5 352.5t-207 127t-207 -125 t-57.5 -352z" />
<glyph unicode="&#xf3;" horiz-adv-x="1069" d="M72 461q0 201 126 342t337 141q213 0 338.5 -142.5t125.5 -343t-125.5 -343t-338.5 -142.5q-211 0 -337 143.5t-126 344.5zM270 459q0 -106 11.5 -187.5t40 -150t82 -104t131.5 -35.5q150 0 207 124.5t57 350t-57.5 352.5t-207 127t-207 -125t-57.5 -352zM502 997 l149 383h158l-299 -383h-8z" />
<glyph unicode="&#xf4;" horiz-adv-x="1069" d="M72 461q0 201 126 342t337 141q213 0 338.5 -142.5t125.5 -343t-125.5 -343t-338.5 -142.5q-211 0 -337 143.5t-126 344.5zM270 459q0 -106 11.5 -187.5t40 -150t82 -104t131.5 -35.5q150 0 207 124.5t57 350t-57.5 352.5t-207 127t-207 -125t-57.5 -352zM291 997 l180 383h137l180 -383h-8l-241 297l-240 -297h-8z" />
<glyph unicode="&#xf5;" horiz-adv-x="1069" d="M72 461q0 201 126 342t337 141q213 0 338.5 -142.5t125.5 -343t-125.5 -343t-338.5 -142.5q-211 0 -337 143.5t-126 344.5zM266 1065q14 135 52 193.5t102 58.5q33 0 133 -33t137 -33q68 0 88 64q8 25 19 76h8q-14 -135 -51 -193.5t-101 -58.5q-33 0 -134 32.5t-138 32.5 q-68 0 -88 -63q-8 -25 -19 -76h-8zM270 459q0 -106 11.5 -187.5t40 -150t82 -104t131.5 -35.5q150 0 207 124.5t57 350t-57.5 352.5t-207 127t-207 -125t-57.5 -352z" />
<glyph unicode="&#xf6;" horiz-adv-x="1069" d="M72 461q0 201 126 342t337 141q213 0 338.5 -142.5t125.5 -343t-125.5 -343t-338.5 -142.5q-211 0 -337 143.5t-126 344.5zM270 459q0 -106 11.5 -187.5t40 -150t82 -104t131.5 -35.5q150 0 207 124.5t57 350t-57.5 352.5t-207 127t-207 -125t-57.5 -352zM272 1302.5 q0 47.5 28 76t69 28.5t69.5 -28.5t28.5 -76t-27.5 -76t-70.5 -28.5q-41 0 -69 28.5t-28 76zM600 1302.5q0 47.5 27.5 76t68.5 28.5t70 -28.5t29 -76t-28 -76t-71 -28.5q-41 0 -68.5 28.5t-27.5 76z" />
<glyph unicode="&#xf7;" d="M41 461v112h942v-112h-942zM412 209q0 43 27.5 71.5t70.5 28.5t71.5 -28.5t28.5 -71.5t-28.5 -70.5t-71.5 -27.5t-70.5 27.5t-27.5 70.5zM412 823q0 43 27.5 72t70.5 29t71.5 -29t28.5 -72t-28.5 -70.5t-71.5 -27.5t-70.5 27.5t-27.5 70.5z" />
<glyph unicode="&#xf8;" horiz-adv-x="1069" d="M72 461q0 201 126 342t337 141q147 0 256 -74l112 170h12l-114 -176q94 -66 146 -174t52 -231q0 -201 -125.5 -343.5t-338.5 -142.5q-154 0 -269 82l-112 -170h-11l115 174q-90 68 -138 174.5t-48 227.5zM270 459q0 -207 43 -318l432 660q-63 135 -210 135 q-150 0 -207.5 -125t-57.5 -352zM317 131q63 -150 218 -149q150 0 207 124.5t57 350.5q0 217 -49 331z" />
<glyph unicode="&#xf9;" horiz-adv-x="1120" d="M29 913v7h299v-619q0 -152 56 -226.5t153 -74.5q145 0 231 152v487q0 135 -9 190.5t-24.5 67.5t-58.5 14l-41 2v7h303v-639q0 -135 9 -190.5t24.5 -68t58.5 -14.5l41 -2v-6h-299v141q-100 -166 -268 -166q-141 0 -243.5 88.5t-102.5 239.5v336q0 133 -8.5 189.5 t-23.5 68.5t-56 14zM215 1380h158l149 -383h-8z" />
<glyph unicode="&#xfa;" horiz-adv-x="1120" d="M29 913v7h299v-619q0 -152 56 -226.5t153 -74.5q145 0 231 152v487q0 135 -9 190.5t-24.5 67.5t-58.5 14l-41 2v7h303v-639q0 -135 9 -190.5t24.5 -68t58.5 -14.5l41 -2v-6h-299v141q-100 -166 -268 -166q-141 0 -243.5 88.5t-102.5 239.5v336q0 133 -8.5 189.5 t-23.5 68.5t-56 14zM528 997l150 383h158l-299 -383h-9z" />
<glyph unicode="&#xfb;" horiz-adv-x="1120" d="M29 913v7h299v-619q0 -152 56 -226.5t153 -74.5q145 0 231 152v487q0 135 -9 190.5t-24.5 67.5t-58.5 14l-41 2v7h303v-639q0 -135 9 -190.5t24.5 -68t58.5 -14.5l41 -2v-6h-299v141q-100 -166 -268 -166q-141 0 -243.5 88.5t-102.5 239.5v336q0 133 -8.5 189.5 t-23.5 68.5t-56 14zM274 997l181 383h137l180 -383h-8l-242 297l-239 -297h-9z" />
<glyph unicode="&#xfc;" horiz-adv-x="1120" d="M29 913v7h299v-619q0 -152 56 -226.5t153 -74.5q145 0 231 152v487q0 135 -9 190.5t-24.5 67.5t-58.5 14l-41 2v7h303v-639q0 -135 9 -190.5t24.5 -68t58.5 -14.5l41 -2v-6h-299v141q-100 -166 -268 -166q-141 0 -243.5 88.5t-102.5 239.5v336q0 133 -8.5 189.5 t-23.5 68.5t-56 14zM242 1302.5q0 47.5 27.5 76t68.5 28.5t69.5 -28.5t28.5 -76t-27.5 -76t-70.5 -28.5q-41 0 -68.5 28.5t-27.5 76zM569 1302.5q0 47.5 28 76t69 28.5t69.5 -28.5t28.5 -76t-27.5 -76t-70.5 -28.5q-41 0 -69 28.5t-28 76z" />
<glyph unicode="&#xfd;" horiz-adv-x="948" d="M2 913v7h401v-7l-36 -2q-35 -2 -50.5 -14t-15.5 -39t12.5 -64.5t40.5 -99.5l213 -477l154 385q47 111 41 208t-72 101l-35 2v7h291v-7l-16 -2q-45 -6 -85 -64.5t-114 -244.5l-242 -606v-33q0 -215 37 -294t125 -87l23 -2v-6h-377v6l22 2q88 8 125 87t37 294v33l-311 692 q-57 127 -89 173t-63 50zM516 997l150 383h157l-299 -383h-8z" />
<glyph unicode="&#xfe;" horiz-adv-x="1118" d="M49 -420l41 2q43 2 58.5 14.5t24.5 67.5t9 191v1245q0 135 -9 190.5t-24.5 67.5t-58.5 14l-41 2v6h303v-460q88 25 178 24q229 0 365.5 -138t136.5 -347q0 -207 -137 -345.5t-365 -138.5q-90 0 -178 25v-145q0 -135 9.5 -190.5t24.5 -68t58 -14.5l41 -2v-6h-436v6z M352 10q98 -27 178 -26q303 0 304 475q0 477 -304 477q-90 0 -178 -27v-899z" />
<glyph unicode="&#xff;" horiz-adv-x="948" d="M2 913v7h401v-7l-36 -2q-35 -2 -50.5 -14t-15.5 -39t12.5 -64.5t40.5 -99.5l213 -477l154 385q47 111 41 208t-72 101l-35 2v7h291v-7l-16 -2q-45 -6 -85 -64.5t-114 -244.5l-242 -606v-33q0 -215 37 -294t125 -87l23 -2v-6h-377v6l22 2q88 8 125 87t37 294v33l-311 692 q-57 127 -89 173t-63 50zM260 1302.5q0 47.5 27.5 76t68.5 28.5t70 -28.5t29 -76t-28 -76t-71 -28.5q-41 0 -68.5 28.5t-27.5 76zM588 1302.5q0 47.5 27.5 76t68.5 28.5t69.5 -28.5t28.5 -76t-27.5 -76t-70.5 -28.5q-41 0 -68.5 28.5t-27.5 76z" />
<glyph unicode="&#x152;" horiz-adv-x="2164" d="M92 692q0 279 183.5 483.5t492.5 204.5h1182v-370h-6l-23 69q-31 96 -74 156.5t-99 89.5t-110.5 38t-134.5 9h-112q-68 0 -82.5 -49t-14.5 -260v-350h117q45 0 77 5t68.5 22.5t64.5 56.5t44 100l12 45h6v-467h-6l-12 45q-16 61 -44 100t-64.5 56.5t-68.5 23t-77 5.5h-117 v-388q0 -211 14.5 -260t82.5 -49h153q113 0 178.5 21.5t128 100.5t111.5 232l23 70h6v-432h-1223q-158 0 -288 59.5t-214 157.5t-129 221t-45 254zM303 690q0 -135 23.5 -251.5t76 -216t145.5 -157t220 -57.5h221q78 0 98.5 51.5t20.5 257.5v746q0 207 -20.5 258t-98.5 51 h-221q-127 0 -220 -56t-145.5 -155.5t-76 -216.5t-23.5 -254z" />
<glyph unicode="&#x153;" horiz-adv-x="1781" d="M72 461q0 201 126 342t337 141q215 0 364 -194q61 90 153.5 142t196.5 52q211 0 311.5 -113.5t100.5 -308.5h-649v-49q0 -96 10 -166.5t39 -147.5t94.5 -119t165.5 -42q268 0 328 246l10 -2q-59 -268 -379 -269q-229 0 -375 203q-145 -203 -370 -203q-211 0 -337 143.5 t-126 344.5zM270 459q0 -106 11.5 -187.5t40 -150t82 -104t131.5 -35.5q150 0 207 124.5t57 350t-57.5 352.5t-207 127t-207 -125t-57.5 -352zM1012 530h456q0 86 -7 148.5t-27.5 126t-66.5 97.5t-118 34q-141 0 -188 -99.5t-49 -306.5z" />
<glyph unicode="&#x178;" horiz-adv-x="1314" d="M2 1374v6h506v-6l-43 -2q-88 -6 -72 -80q12 -55 131 -245l219 -357l144 219q137 209 137 322q0 66 -23.5 101.5t-91.5 39.5l-43 2v6h447v-6l-43 -2q-55 -2 -117.5 -82t-257.5 -385l-147 -227v-361q0 -143 10 -205.5t31.5 -82t76.5 -21.5l43 -2v-6h-510v6l43 2 q55 2 77 21.5t32 82t10 205.5v355l-237 364l-52 78l-43 68l-34 53l-31 45q-10 14 -25.5 33.5t-25.5 26.5l-23 17q-12 9 -24.5 12t-26.5 3zM428 1575q0 47 27.5 75.5t68.5 28.5t70 -28.5t29 -75.5t-28 -76t-71 -29q-41 0 -68.5 29t-27.5 76zM756 1575q0 47 27.5 75.5 t68.5 28.5t69.5 -28.5t28.5 -75.5t-27.5 -76t-70.5 -29q-41 0 -68.5 29t-27.5 76z" />
<glyph unicode="&#x2c6;" d="M262 997l180 383h138l180 -383h-8l-242 297l-240 -297h-8z" />
<glyph unicode="&#x302;" d="M262 997l180 383h138l180 -383h-8l-242 297l-240 -297h-8z" />
<glyph unicode="&#x2dc;" d="M242 1065q14 135 52 193.5t101 58.5q33 0 133.5 -33t137.5 -33q68 0 88 64q8 25 18 76h8q-14 -135 -51 -193.5t-100 -58.5q-33 0 -134.5 32.5t-138.5 32.5q-68 0 -88 -63q-8 -25 -18 -76h-8z" />
<glyph unicode="&#x303;" d="M242 1065q14 135 52 193.5t101 58.5q33 0 133.5 -33t137.5 -33q68 0 88 64q8 25 18 76h8q-14 -135 -51 -193.5t-100 -58.5q-33 0 -134.5 32.5t-138.5 32.5q-68 0 -88 -63q-8 -25 -18 -76h-8z" />
<glyph unicode="&#x2000;" horiz-adv-x="880" />
<glyph unicode="&#x2001;" horiz-adv-x="1763" />
<glyph unicode="&#x2002;" horiz-adv-x="880" />
<glyph unicode="&#x2003;" horiz-adv-x="1763" />
<glyph unicode="&#x2004;" horiz-adv-x="587" />
<glyph unicode="&#x2005;" horiz-adv-x="440" />
<glyph unicode="&#x2006;" horiz-adv-x="292" />
<glyph unicode="&#x2007;" horiz-adv-x="292" />
<glyph unicode="&#x2008;" horiz-adv-x="219" />
<glyph unicode="&#x2009;" horiz-adv-x="352" />
<glyph unicode="&#x200a;" horiz-adv-x="96" />
<glyph unicode="&#x2010;" horiz-adv-x="512" d="M41 416v121h430v-121h-430z" />
<glyph unicode="&#x2011;" horiz-adv-x="512" d="M41 416v121h430v-121h-430z" />
<glyph unicode="&#x2013;" d="M41 467v20h942v-20h-942z" />
<glyph unicode="&#x2014;" horiz-adv-x="2048" d="M41 467v20h1966v-20h-1966z" />
<glyph unicode="&#x2018;" horiz-adv-x="512" d="M141 1171q0 96 60.5 162t197.5 66v-8q-113 0 -173 -50.5t-60 -138.5q0 -59 49 -59q14 0 31.5 5t27.5 5q45 0 70 -23.5t25 -60.5q0 -45 -25 -71.5t-70 -26.5q-53 0 -93 49t-40 151z" />
<glyph unicode="&#x2019;" horiz-adv-x="512" d="M113 952v9q113 0 173 50t60 138q0 59 -49 59q-14 0 -31.5 -5t-27.5 -5q-45 0 -70 23.5t-25 60.5q0 45 25 71.5t70 26.5q53 0 93 -49t40 -151q0 -96 -60.5 -162t-197.5 -66z" />
<glyph unicode="&#x201a;" horiz-adv-x="512" d="M115 -195q113 0 173 50.5t60 138.5q0 59 -49 59q-14 0 -31.5 -5t-27.5 -5q-45 0 -70 23.5t-25 60.5q0 45 25 71.5t70 26.5q53 0 93 -49t40 -151q0 -96 -60.5 -162t-197.5 -66v8z" />
<glyph unicode="&#x201c;" horiz-adv-x="839" d="M162 1171q0 96 60.5 162t197.5 66v-8q-113 0 -173.5 -50.5t-60.5 -138.5q0 -59 50 -59q14 0 31.5 5t27.5 5q45 0 69.5 -23.5t24.5 -60.5q0 -45 -24.5 -71.5t-69.5 -26.5q-53 0 -93 49t-40 151zM469 1171q0 96 60.5 162t197.5 66v-8q-113 0 -173 -50.5t-60 -138.5 q0 -59 49 -59q14 0 31.5 5t27.5 5q45 0 69.5 -23.5t24.5 -60.5q0 -45 -24.5 -71.5t-69.5 -26.5q-53 0 -93 49t-40 151z" />
<glyph unicode="&#x201d;" horiz-adv-x="839" d="M119 952v9q113 0 173 50t60 138q0 59 -49 59q-14 0 -31.5 -5t-27.5 -5q-45 0 -69.5 23.5t-24.5 60.5q0 45 24.5 71.5t69.5 26.5q53 0 93 -49t40 -151q0 -96 -60.5 -162t-197.5 -66zM426 952v9q113 0 173 50t60 138q0 59 -49 59q-14 0 -31.5 -5t-27.5 -5q-45 0 -69.5 23.5 t-24.5 60.5q0 45 24.5 71.5t69.5 26.5q53 0 93 -49t40 -151q0 -96 -60.5 -162t-197.5 -66z" />
<glyph unicode="&#x201e;" horiz-adv-x="839" d="M119 -193q113 0 173 50.5t60 138.5q0 59 -49 59q-14 0 -31.5 -5t-27.5 -5q-45 0 -69.5 23.5t-24.5 60.5q0 45 24.5 71.5t69.5 26.5q53 0 93 -49t40 -151q0 -96 -60.5 -162t-197.5 -66v8zM426 -193q113 0 173 50.5t60 138.5q0 59 -49 59q-14 0 -31.5 -5t-27.5 -5 q-45 0 -69.5 23.5t-24.5 60.5q0 45 24.5 71.5t69.5 26.5q53 0 93 -49t40 -151q0 -96 -60.5 -162t-197.5 -66v8z" />
<glyph unicode="&#x2022;" horiz-adv-x="700" d="M160 475q0 84 53 138.5t135 54.5t137.5 -55.5t55.5 -137.5t-54.5 -135t-138.5 -53q-82 0 -135 53t-53 135z" />
<glyph unicode="&#x2026;" horiz-adv-x="2048" d="M246 115q0 49 28.5 79.5t73.5 30.5q47 0 76 -30.5t29 -79.5q0 -51 -29 -83t-74 -32q-47 0 -75.5 32t-28.5 83zM922 115q0 49 28.5 79.5t73.5 30.5q47 0 75.5 -30.5t28.5 -79.5q0 -51 -28.5 -83t-73.5 -32q-47 0 -75.5 32t-28.5 83zM1597 115q0 49 29 79.5t74 30.5 q47 0 75.5 -30.5t28.5 -79.5q0 -51 -28.5 -83t-73.5 -32q-47 0 -76 32t-29 83z" />
<glyph unicode="&#x202f;" horiz-adv-x="352" />
<glyph unicode="&#x2039;" horiz-adv-x="512" d="M61 477q203 184 340 379h9q-47 -72 -91.5 -184.5t-58.5 -194.5q14 -82 58 -194.5t92 -184.5h-9q-137 195 -340 379z" />
<glyph unicode="&#x203a;" horiz-adv-x="512" d="M102 98q47 72 91.5 184.5t58.5 194.5q-14 82 -58 194.5t-92 184.5h9q137 -195 340 -379q-203 -184 -340 -379h-9z" />
<glyph unicode="&#x205f;" horiz-adv-x="440" />
<glyph unicode="&#x20ac;" horiz-adv-x="1251" d="M102 424v8h144q-2 23 -2 72q0 76 14 141h-156v8h158q37 172 154.5 279.5t312.5 107.5q131 0 231.5 -61t100.5 -137q0 -41 -29 -69t-74 -28q-41 0 -68.5 28t-27.5 69q0 35 20.5 69.5t20.5 44.5q0 27 -48 51.5t-126 24.5q-240 0 -276 -379h405v-8h-405q-6 -72 -7 -141 q0 -47 2 -72h410v-8h-410q4 -88 20.5 -163t48.5 -140.5t86 -102t126 -36.5q80 0 140.5 25.5t60.5 51.5q0 10 -23.5 47t-23.5 74q0 43 29.5 73t72.5 30q49 0 79 -29t30 -74q0 -76 -116 -141.5t-249 -65.5q-213 0 -335 128t-144 323h-146z" />
<glyph unicode="&#x2122;" d="M20 -205v533h697v-287h-185v102h-327v-163h799v-185h-984zM20 389v553h185v-184h799v-185h-799v-184h-185zM20 1004v430h185v-246h307v205h184v-205h308v-184h-984z" />
</font>
</defs>
</svg>
